<?xml version="1.0" encoding="UTF-8" standalone="no"?>
<!DOCTYPE svg PUBLIC "-//W3C//DTD SVG 1.1//EN" "http://www.w3.org/Graphics/SVG/1.1/DTD/svg11.dtd">
<!-- Generated by Microsoft Visio, SVG Export svg_1.svg C^3 Context -->
<svg xmlns="http://www.w3.org/2000/svg" xmlns:xlink="http://www.w3.org/1999/xlink" xmlns:ev="http://www.w3.org/2001/xml-events" width="9.84252in" height="6.64961in" viewBox="0 0 708.661 478.772" xml:space="preserve" color-interpolation-filters="sRGB" class="st16">
	<style type="text/css">
	<![CDATA[
		.st1 {fill:#176361;stroke:#145553;stroke-linecap:round;stroke-linejoin:round;stroke-width:1}
		.st2 {fill:#ffffff;font-family:Calibri;font-size:0.833336em}
		.st3 {font-size:0.599989em}
		.st4 {font-size:0.799995em}
		.st5 {marker-end:url(#mrkr13-12);stroke:#444444;stroke-dasharray:5.25,3.75;stroke-linecap:round;stroke-linejoin:round;stroke-width:0.75}
		.st6 {fill:#444444;fill-opacity:1;stroke:#444444;stroke-opacity:1;stroke-width:0.22935779816514}
		.st7 {fill:#ffffff;stroke:none;stroke-linecap:butt}
		.st8 {fill:#000000;font-family:Calibri;font-size:0.666664em}
		.st9 {font-size:0.749991em}
		.st10 {fill:#114745;stroke:#0d3937;stroke-linecap:round;stroke-linejoin:round;stroke-width:1}
		.st11 {fill:none;stroke:none;stroke-linecap:round;stroke-linejoin:round;stroke-width:0.75}
		.st12 {fill:#000000;font-family:Calibri;font-size:1.00001em}
		.st13 {fill:#999999;stroke:#8b8b8b;stroke-linecap:round;stroke-linejoin:round;stroke-width:1}
		.st14 {font-size:1em}
		.st15 {fill:#ffffff;stroke:none;stroke-linecap:butt;stroke-width:7.2}
		.st16 {fill:none;fill-rule:evenodd;font-size:12px;overflow:visible;stroke-linecap:square;stroke-miterlimit:3}
	]]>
	</style>

	<defs id="Markers">
		<g id="lend13">
			<path d="M 3 1 L 0 0 L 3 -1 L 3 1 " style="stroke:none"/>
		</g>
		<marker id="mrkr13-12" class="st6" refX="-13.08" orient="auto" markerUnits="strokeWidth" overflow="visible">
			<use xlink:href="#lend13" transform="scale(-4.36,-4.36) "/>
		</marker>
	</defs>
	<g>
		<title>Context - Community Connect Change (C^3)</title>
		<g id="shape3-1" transform="translate(296.22,-134.433)">
			<title>Software System</title>
			<desc>CommunityConnectChange [Software System] System for community...</desc>
			<rect x="0" y="390.472" width="126.142" height="88.2992" class="st1"/>
			<text x="7.45" y="420.12" class="st2">CommunityConnectChange <tspan x="40.75" dy="1.167em" class="st3">[Software System] </tspan><tspan x="5.65" dy="2.187em" class="st4">System for community members to </tspan><tspan x="35.64" dy="1.188em" class="st4">interact for good</tspan></text>		</g>
		<g id="shape4-7" transform="translate(351.571,-277.795)">
			<title>Relationship</title>
			<desc>Interactions Workflow [HTTPS]</desc>
			<path d="M6.84 478.77 L7.24 524.03" class="st5"/>
			<rect x="-29.2101" y="498.304" width="72.7339" height="15.9999" class="st7"/>
			<text x="-29.21" y="504.3" class="st8">Interactions Workflow <tspan x="-2.4" dy="1.333em" class="st9">[HTTPS]</tspan></text>		</g>
		<g id="shape5-16" transform="translate(478.32,-290.309)">
			<title>Relationship.5</title>
			<desc>Interactions Workflow [HTTPS]</desc>
			<path d="M0 478.77 L-64.84 539.63" class="st5"/>
			<rect x="-72.3171" y="504.613" width="72.7339" height="15.9999" class="st7"/>
			<text x="-72.32" y="510.61" class="st8">Interactions Workflow <tspan x="-45.51" dy="1.333em" class="st9">[HTTPS]</tspan></text>		</g>
		<g id="shape10-24" transform="translate(88.5827,-231.732)">
			<title>Software System.10</title>
			<desc>AnalyticsAndReporting [Software System] Interaction and Opera...</desc>
			<rect x="0" y="404.362" width="106.299" height="74.4094" class="st1"/>
			<text x="6.77" y="423.07" class="st2">AnalyticsAndReporting <tspan x="30.83" dy="1.167em" class="st3">[Software System] </tspan><tspan x="7.96" dy="2.187em" class="st4">Interaction and Operational </tspan><tspan x="6.08" dy="1em" class="st4">data management/analytics/</tspan><tspan x="37.92" dy="1.188em" class="st4">reporting</tspan></text>		</g>
		<g id="shape11-31" transform="translate(296.22,-204.777)">
			<title>Relationship.11</title>
			<desc>Pushes Telemetry [mTLS]</desc>
			<path d="M0 478.77 L-92.28 440.45" class="st5"/>
			<rect x="-79.5689" y="449.792" width="57.7414" height="15.9999" class="st7"/>
			<text x="-79.57" y="455.79" class="st8">Pushes Telemetry <tspan x="-59.04" dy="1.333em" class="st9">[mTLS]</tspan></text>		</g>
		<g id="shape13-39" transform="translate(304.724,-277.795)">
			<title>Person</title>
			<desc>Civilian [Member] A non-police officer community member</desc>
			<path d="M37.41 404.36 L19.84 404.36 A19.8425 19.8425 -180 0 0 -0 424.2 L0 458.93 A19.8425 19.8425 -180 0 0 19.84 478.77&#xA;						 L86.46 478.77 A19.8425 19.8425 -180 0 0 106.3 458.93 L106.3 424.2 A19.8425 19.8425 -180 0 0 86.46 404.36&#xA;						 L68.89 404.36 A26.3622 26.5039 -180 1 0 37.41 404.36 Z" class="st10"/>
			<text x="38.61" y="425.02" class="st2">Civilian <tspan x="40.74" dy="1.667em" class="st3">[Member]  </tspan><tspan x="21.22" dy="2.312em" class="st4">A non</tspan><tspan class="st4">-</tspan><tspan class="st4">police officer </tspan><tspan x="19.92" dy="1.188em" class="st4">community member</tspan></text>		</g>
		<g id="shape14-47" transform="translate(476.917,-277.795)">
			<title>Person.14</title>
			<desc>Officer [Member] Police Officer community member</desc>
			<path d="M37.41 404.36 L19.84 404.36 A19.8425 19.8425 -180 0 0 -0 424.2 L0 458.93 A19.8425 19.8425 -180 0 0 19.84 478.77&#xA;						 L86.46 478.77 A19.8425 19.8425 -180 0 0 106.3 458.93 L106.3 424.2 A19.8425 19.8425 -180 0 0 86.46 404.36&#xA;						 L68.89 404.36 A26.3622 26.5039 -180 1 0 37.41 404.36 Z" class="st10"/>
			<text x="39.29" y="425.02" class="st2">Officer <tspan x="40.74" dy="1.667em" class="st3">[Member]  </tspan><tspan x="12.1" dy="2.312em" class="st4">Police Officer community </tspan><tspan x="39.28" dy="1.188em" class="st4">member</tspan></text>		</g>
		<g id="shape16-53" transform="translate(93.8268,-52.7244)">
			<title>Sheet.16</title>
			<desc>[System Context] CommunityConnectChange System</desc>
			<rect x="0" y="425.48" width="274.677" height="53.2913" class="st11"/>
			<text x="8.51" y="455.73" class="st12">[System Context] CommunityConnectChange System</text>		</g>
		<g id="shape18-56" transform="translate(496.063,-141.378)">
			<title>Software System Gray</title>
			<desc>Geographic Information and Maps Provider [Software System] Ex...</desc>
			<rect x="0" y="404.362" width="106.299" height="74.4094" class="st13"/>
			<text x="4.47" y="422.07" class="st2">Geographic Information <tspan x="14.76" dy="1em" class="st14">and Maps Provider </tspan><tspan x="30.83" dy="1.167em" class="st3">[Software System] </tspan><tspan x="4.92" dy="2.187em" class="st4">External system providing GIS </tspan><tspan x="34.86" dy="1.188em" class="st4">capabilities</tspan></text>		</g>
		<g id="shape19-63" transform="translate(422.362,-171.496)">
			<title>Relationship.19</title>
			<desc>Uses [technology]</desc>
			<path d="M0 471.69 L63.89 471.69" class="st5"/>
			<rect x="21.4713" y="463.615" width="30.7614" height="15.9999" class="st15"/>
			<text x="29.17" y="469.62" class="st8">Uses <tspan x="21.47" dy="1.333em" class="st9">[technology]</tspan></text>		</g>
		<g id="shape20-71" transform="translate(83.1005,-123.367)">
			<title>Software System.15</title>
			<desc>OrganizationalIncentives [Software System] Manages Charity an...</desc>
			<rect x="0" y="396.687" width="117.264" height="82.0845" class="st1"/>
			<text x="8.42" y="419.23" class="st2">OrganizationalIncentives <tspan x="36.31" dy="1.167em" class="st3">[Software System] </tspan><tspan x="9.42" dy="2.187em" class="st4">Manages Charity and Business </tspan><tspan x="19.07" dy="1em" class="st4">Relations and Donation/</tspan><tspan x="38.61" dy="1.188em" class="st4">Redemption</tspan></text>		</g>
		<g id="shape22-78" transform="translate(296.22,-178.438)">
			<title>Relationship.22</title>
			<desc>Records Points [Event]</desc>
			<path d="M0 482.74 L-86.07 488.34" class="st5"/>
			<rect x="-71.9526" y="477.929" width="48.0542" height="15.9999" class="st15"/>
			<text x="-71.95" y="483.93" class="st8">Records Points <tspan x="-56.66" dy="1.333em" class="st9">[Event]</tspan></text>		</g>
	</g>
</svg>
