<?xml version="1.0" encoding="UTF-8" standalone="no"?>
<!DOCTYPE svg PUBLIC "-//W3C//DTD SVG 1.1//EN" "http://www.w3.org/Graphics/SVG/1.1/DTD/svg11.dtd">
<!-- Generated by Microsoft Visio, SVG Export svg_1.svg Containers - Community Connect Change System -->
<svg xmlns="http://www.w3.org/2000/svg" xmlns:xlink="http://www.w3.org/1999/xlink" xmlns:ev="http://www.w3.org/2001/xml-events" width="17.0866in" height="10.0472in" viewBox="0 0 1230.24 723.402" xml:space="preserve" color-interpolation-filters="sRGB" class="st23">
	<style type="text/css">
	<![CDATA[
		.st1 {marker-end:url(#mrkr13-6);stroke:#444444;stroke-dasharray:5.25,3.75;stroke-linecap:round;stroke-linejoin:round;stroke-width:0.75}
		.st2 {fill:#444444;fill-opacity:1;stroke:#444444;stroke-opacity:1;stroke-width:0.22935779816514}
		.st3 {fill:#ffffff;stroke:none;stroke-linecap:butt}
		.st4 {fill:#000000;font-family:Calibri;font-size:0.666664em}
		.st5 {font-size:0.749991em}
		.st6 {fill:#ffffff;stroke:none;stroke-linecap:butt;stroke-width:7.2}
		.st7 {fill:#176361;stroke:#145553;stroke-linecap:round;stroke-linejoin:round;stroke-width:1}
		.st8 {fill:#ffffff;font-family:Calibri;font-size:0.833336em}
		.st9 {font-size:0.599989em}
		.st10 {font-size:0.799995em}
		.st11 {fill:#114745;stroke:#0d3937;stroke-linecap:round;stroke-linejoin:round;stroke-width:1}
		.st12 {fill:none;stroke:none;stroke-linecap:round;stroke-linejoin:round;stroke-width:0.75}
		.st13 {fill:#000000;font-family:Calibri;font-size:1.00001em}
		.st14 {fill:#999999;stroke:#8b8b8b;stroke-linecap:round;stroke-linejoin:round;stroke-width:1}
		.st15 {font-size:1em}
		.st16 {fill:none;stroke:#444444;stroke-dasharray:7.5,4.5;stroke-linecap:round;stroke-linejoin:round;stroke-width:0.5}
		.st17 {fill:#000000;font-family:Calibri;font-size:0.833336em}
		.st18 {fill:#1e807c;stroke:#3d81c3;stroke-linecap:round;stroke-linejoin:round;stroke-width:0.75}
		.st19 {fill:#218e8a;stroke:none;stroke-linecap:round;stroke-linejoin:round;stroke-width:0.75}
		.st20 {fill:#218e8a;stroke:#1e807c;stroke-linecap:round;stroke-linejoin:round;stroke-width:1}
		.st21 {fill:#218e8a;stroke:#1e807c;stroke-linecap:round;stroke-linejoin:round;stroke-width:0.283465}
		.st22 {stroke:#218e8a;stroke-linecap:round;stroke-linejoin:round;stroke-width:1}
		.st23 {fill:none;fill-rule:evenodd;font-size:12px;overflow:visible;stroke-linecap:square;stroke-miterlimit:3}
	]]>
	</style>

	<defs id="Markers">
		<g id="lend13">
			<path d="M 3 1 L 0 0 L 3 -1 L 3 1 " style="stroke:none"/>
		</g>
		<marker id="mrkr13-6" class="st2" refX="-13.08" orient="auto" markerUnits="strokeWidth" overflow="visible">
			<use xlink:href="#lend13" transform="scale(-4.36,-4.36) "/>
		</marker>
	</defs>
	<g>
		<title>Containers - Community Connect Change System</title>
		<g id="shape2-1" transform="translate(364.074,-544.961)">
			<title>Relationship</title>
			<desc>Interactions Workflow [HTTPS]</desc>
			<path d="M0 723.4 L26.31 794.84" class="st1"/>
			<rect x="-21.4489" y="755.702" width="72.7339" height="15.9999" class="st3"/>
			<text x="-21.45" y="761.7" class="st4">Interactions Workflow <tspan x="5.36" dy="1.333em" class="st5">[HTTPS]</tspan></text>		</g>
		<g id="shape3-10" transform="translate(705.653,-545.024)">
			<title>Relationship.3</title>
			<desc>Interactions Workflow [HTTPS]</desc>
			<path d="M0 723.4 L-41.29 795.6" class="st1"/>
			<rect x="-59.3851" y="755.793" width="72.7339" height="15.9999" class="st6"/>
			<text x="-59.39" y="761.79" class="st4">Interactions Workflow <tspan x="-32.58" dy="1.333em" class="st5">[HTTPS]</tspan></text>		</g>
		<g id="shape4-18" transform="translate(50.9618,-290.693)">
			<title>Software System.10</title>
			<desc>AnalyticsAndReporting [Software System] Interaction and Opera...</desc>
			<rect x="0" y="642.5" width="115.574" height="80.9016" class="st7"/>
			<text x="11.41" y="664.45" class="st8">AnalyticsAndReporting <tspan x="35.46" dy="1.167em" class="st9">[Software System] </tspan><tspan x="4.42" dy="2.187em" class="st10">Interaction and Operational data </tspan><tspan x="18.89" dy="1em" class="st10">management/analytics/</tspan><tspan x="42.55" dy="1.188em" class="st10">reporting</tspan></text>		</g>
		<g id="shape5-25" transform="translate(450.85,-218.382)">
			<title>Relationship.11</title>
			<desc>Pushes Telemetry [mTLS]</desc>
			<path d="M0 723.4 L-275 632.76" class="st1"/>
			<rect x="-171.056" y="668.609" width="57.7414" height="15.9999" class="st3"/>
			<text x="-171.06" y="674.61" class="st4">Pushes Telemetry <tspan x="-150.52" dy="1.333em" class="st5">[mTLS]</tspan></text>		</g>
		<g id="shape6-33" transform="translate(288.425,-544.961)">
			<title>Person</title>
			<desc>Civilian [Member] A non-police officer community member</desc>
			<path d="M37.41 648.99 L19.84 648.99 A19.8425 19.8425 -180 0 0 -0 668.83 L0 703.56 A19.8425 19.8425 -180 0 0 19.84 723.4&#xA;						 L86.46 723.4 A19.8425 19.8425 -180 0 0 106.3 703.56 L106.3 668.83 A19.8425 19.8425 -180 0 0 86.46 648.99&#xA;						 L68.89 648.99 A26.3622 26.5039 -180 1 0 37.41 648.99 Z" class="st11"/>
			<text x="38.61" y="669.65" class="st8">Civilian <tspan x="40.74" dy="1.667em" class="st9">[Member]  </tspan><tspan x="21.22" dy="2.312em" class="st10">A non</tspan><tspan class="st10">-</tspan><tspan class="st10">police officer </tspan><tspan x="19.92" dy="1.188em" class="st10">community member</tspan></text>		</g>
		<g id="shape7-41" transform="translate(687.402,-544.961)">
			<title>Person.14</title>
			<desc>Officer [Member] Police Officer community member</desc>
			<path d="M37.41 648.99 L19.84 648.99 A19.8425 19.8425 -180 0 0 -0 668.83 L0 703.56 A19.8425 19.8425 -180 0 0 19.84 723.4&#xA;						 L86.46 723.4 A19.8425 19.8425 -180 0 0 106.3 703.56 L106.3 668.83 A19.8425 19.8425 -180 0 0 86.46 648.99&#xA;						 L68.89 648.99 A26.3622 26.5039 -180 1 0 37.41 648.99 Z" class="st11"/>
			<text x="39.29" y="669.65" class="st8">Officer <tspan x="40.74" dy="1.667em" class="st9">[Member]  </tspan><tspan x="12.1" dy="2.312em" class="st10">Police Officer community </tspan><tspan x="39.28" dy="1.188em" class="st10">member</tspan></text>		</g>
		<g id="shape8-47" transform="translate(22.9606,-12.4724)">
			<title>Sheet.8</title>
			<desc>[System Context] CommunityConnectChange System</desc>
			<rect x="0" y="670.11" width="274.677" height="53.2913" class="st12"/>
			<text x="8.51" y="700.36" class="st13">[System Context] CommunityConnectChange System</text>		</g>
		<g id="shape9-50" transform="translate(807.874,-267.591)">
			<title>Software System Gray</title>
			<desc>Geographic Information and Maps Provider [Software System] Ex...</desc>
			<rect x="0" y="648.992" width="106.299" height="74.4094" class="st14"/>
			<text x="4.47" y="666.7" class="st8">Geographic Information <tspan x="14.76" dy="1em" class="st15">and Maps Provider </tspan><tspan x="30.83" dy="1.167em" class="st9">[Software System] </tspan><tspan x="4.92" dy="2.187em" class="st10">External system providing GIS </tspan><tspan x="34.86" dy="1.188em" class="st10">capabilities</tspan></text>		</g>
		<g id="shape10-57" transform="translate(592.583,-217.95)">
			<title>Relationship.19</title>
			<desc>Uses [technology]</desc>
			<path d="M0 723.4 L205.96 656.77" class="st1"/>
			<rect x="92.248" y="680.508" width="30.7614" height="15.9999" class="st6"/>
			<text x="99.94" y="686.51" class="st4">Uses <tspan x="92.25" dy="1.333em" class="st5">[technology]</tspan></text>		</g>
		<g id="shape11-65" transform="translate(49.2719,-104.315)">
			<title>Software System.15</title>
			<desc>OrganizationalIncentives [Software System] Manages Charity an...</desc>
			<rect x="0" y="641.317" width="117.264" height="82.0845" class="st7"/>
			<text x="8.42" y="663.86" class="st8">OrganizationalIncentives <tspan x="36.31" dy="1.167em" class="st9">[Software System] </tspan><tspan x="9.42" dy="2.187em" class="st10">Manages Charity and Business </tspan><tspan x="19.07" dy="1em" class="st10">Relations and Donation/</tspan><tspan x="38.61" dy="1.188em" class="st10">Redemption</tspan></text>		</g>
		<g id="shape12-72" transform="translate(450.85,-186.518)">
			<title>Relationship.22</title>
			<desc>Records Points [Event]</desc>
			<path d="M0 723.4 L-274.57 756.36" class="st1"/>
			<rect x="-166.182" y="732.534" width="48.0542" height="15.9999" class="st3"/>
			<text x="-166.18" y="738.53" class="st4">Records Points <tspan x="-150.89" dy="1.333em" class="st5">[Event]</tspan></text>		</g>
		<g id="shape13-80" transform="translate(250.866,-104.315)">
			<title>Container Boundary</title>
			<desc>CommunityConnectChange [Container]</desc>
			<path d="M0 723.4 L514.49 723.4 L514.49 335.06 L0 335.06 L0 723.4 Z" class="st16"/>
			<text x="4" y="704.9" class="st17">CommunityConnectChange  <tspan x="4" dy="1.917em" class="st9">[Container]</tspan></text>		</g>
		<g id="group15-84" transform="translate(354.331,-389.906)">
			<title>Web browser</title>
			<g id="group16-85">
				<title>Sheet.16</title>
				<g id="shape17-86">
					<title>Container.7</title>
					<rect x="0" y="648.992" width="106.299" height="74.4094" rx="1.41732" ry="1.41732" class="st18"/>
				</g>
				<g id="shape18-88" transform="translate(3.47,-66.6142)">
					<title>Sheet.18</title>
					<ellipse cx="3.03014" cy="720.371" rx="3.03014" ry="3.03014" class="st19"/>
				</g>
				<g id="shape19-90" transform="translate(2.12598,-2.12598)">
					<title>Container</title>
					<rect x="0" y="660.331" width="102.047" height="63.0709" rx="1.41732" ry="1.41732" class="st20"/>
				</g>
				<g id="shape20-92" transform="translate(10.9476,-66.6142)">
					<title>Sheet.20</title>
					<ellipse cx="3.03014" cy="720.371" rx="3.03014" ry="3.03014" class="st19"/>
				</g>
				<g id="shape21-94" transform="translate(18.4252,-66.6142)">
					<title>Sheet.21</title>
					<ellipse cx="3.03014" cy="720.371" rx="3.03014" ry="3.03014" class="st19"/>
				</g>
				<g id="shape22-96" transform="translate(26.1692,-66.6093)">
					<title>Container.14</title>
					<rect x="0" y="717.332" width="77.8623" height="6.06999" rx="2.83465" ry="2.83465" class="st21"/>
				</g>
			</g>
			<g id="shape23-98">
				<title>Sheet.23</title>
				<desc>HeyBlue! Community Web Application Enables Interaction and Re...</desc>
				<text x="9.91" y="674.24" class="st8">HeyBlue! Community <tspan x="19.42" dy="1em" class="st15">Web Application  </tspan><tspan x="14.77" dy="1.812em" class="st10">Enables Interaction and </tspan><tspan x="34.47" dy="1.375em" class="st10">Redempion</tspan></text>			</g>
		</g>
		<g id="group24-103" transform="translate(581.102,-389.906)">
			<title>Mobile App</title>
			<g id="shape25-104">
				<title>Container.7</title>
				<rect x="0" y="648.992" width="114.236" height="74.4094" rx="4.25197" ry="4.25197" class="st18"/>
			</g>
			<g id="shape26-106" transform="translate(-621.99,693.552) rotate(-90)">
				<title>Sheet.26</title>
				<path d="M0 723.4 L14.71 723.4" class="st22"/>
			</g>
			<g id="shape27-109" transform="translate(2.1009,-33.3413)">
				<title>Sheet.27</title>
				<ellipse cx="3.25639" cy="720.371" rx="3.25639" ry="3.03014" class="st19"/>
			</g>
			<g id="shape28-111" transform="translate(9.90047,-2.76378)">
				<title>Container</title>
				<rect x="0" y="654.52" width="94.4353" height="68.8819" rx="1.41732" ry="1.41732" class="st20"/>
			</g>
			<g id="shape29-113">
				<title>Sheet.29</title>
				<desc>HeyBue! Community Mobile Application Enables Interaction and ...</desc>
				<text x="39.79" y="666.05" class="st8">HeyBue! <tspan x="18.04" dy="1em" class="st15">Community Mobile </tspan><tspan x="34.08" dy="1em" class="st15">Application  </tspan><tspan x="18.74" dy="1.812em" class="st10">Enables Interaction and </tspan><tspan x="38.44" dy="1.375em" class="st10">Redempion</tspan></text>			</g>
		</g>
		<g id="shape31-119" transform="translate(394.724,-573.987)">
			<title>Relationship.31</title>
			<desc>Interactions Workflow [HTTPS]</desc>
			<path d="M0 723.4 L178.2 830.89" class="st1"/>
			<rect x="56.9748" y="771.624" width="72.7339" height="15.9999" class="st6"/>
			<text x="56.97" y="777.62" class="st4">Interactions Workflow <tspan x="83.78" dy="1.333em" class="st5">[HTTPS]</tspan></text>		</g>
		<g id="shape32-127" transform="translate(687.402,-577.493)">
			<title>Relationship.32</title>
			<desc>Interactions Workflow [HTTPS]</desc>
			<path d="M0 723.4 L-155.23 806.8 A3 3 -180 1 0 -160.52 809.64 L-218.13 840.59" class="st1"/>
			<rect x="-149.724" y="776.381" width="72.7339" height="15.9999" class="st6"/>
			<text x="-149.72" y="782.38" class="st4">Interactions Workflow <tspan x="-122.92" dy="1.333em" class="st5">[HTTPS]</tspan></text>		</g>
		<g id="shape33-135" transform="translate(320.882,-273.657)">
			<title>Container</title>
			<desc>Membership Registration, Profile, Settings (e.g. location ser...</desc>
			<rect x="0" y="660.302" width="90.1417" height="63.0992" class="st20"/>
			<text x="19.1" y="673.35" class="st8">Membership   <tspan x="11.91" dy="3.062em" class="st10">Registration, Profile, </tspan><tspan x="10.08" dy="1em" class="st10">Settings (e.g. location </tspan><tspan x="30.94" dy="1.188em" class="st10">services)</tspan></text>		</g>
		<g id="shape36-141" transform="translate(640.701,-284.506)">
			<title>Container.36</title>
			<desc>Notifications Handles Notifications to Community Members</desc>
			<rect x="0" y="665.908" width="82.1338" height="57.4937" class="st20"/>
			<text x="15.16" y="677.16" class="st8">Notifications   <tspan x="6.35" dy="2.812em" class="st10">Handles Notifications </tspan><tspan x="17.81" dy="1em" class="st10">to Community </tspan><tspan x="25.41" dy="1.188em" class="st10">Members</tspan></text>		</g>
		<g id="shape37-147" transform="translate(450.85,-145.417)">
			<title>Container.37</title>
			<desc>ConnectionManager Maps Interop, Proximity Detection, Interact...</desc>
			<rect x="0" y="624.189" width="141.732" height="99.2126" class="st20"/>
			<text x="29.34" y="664.3" class="st8">ConnectionManager  <tspan x="13.69" dy="1.812em" class="st10">Maps Interop, Proximity Detection, </tspan><tspan x="36.06" dy="1.188em" class="st10">Interaction Workflow</tspan></text>		</g>
		<g id="shape38-152" transform="translate(588.87,-244.63)">
			<title>Relationship.38</title>
			<desc>Uses [technology]</desc>
			<path d="M0 723.4 L46.09 689.35" class="st1"/>
			<rect x="11.5699" y="695.406" width="30.7614" height="15.9999" class="st6"/>
			<text x="19.26" y="701.41" class="st4">Uses <tspan x="11.57" dy="1.333em" class="st5">[technology]</tspan></text>		</g>
		<g id="shape39-160" transform="translate(670.773,-342)">
			<title>Relationship.39</title>
			<desc>Uses [technology]</desc>
			<path d="M0 723.4 L-14.82 684.66" class="st1"/>
			<rect x="-24.6077" y="691.473" width="30.7614" height="15.9999" class="st6"/>
			<text x="-16.91" y="697.47" class="st4">Uses <tspan x="-24.61" dy="1.333em" class="st5">[technology]</tspan></text>		</g>
		<g id="shape40-168" transform="translate(640.701,-329.77)">
			<title>Relationship.40</title>
			<desc>Uses [technology]</desc>
			<path d="M0 723.4 L-39.94 707.34 A3 3 -180 0 0 -45.5 705.1 L-113.05 677.93 A3 3 -180 0 0 -118.62 675.69 L-173.1 653.79" class="st1"/>
			<rect x="-106.509" y="678.827" width="30.7614" height="15.9999" class="st6"/>
			<text x="-98.81" y="684.83" class="st4">Uses <tspan x="-106.51" dy="1.333em" class="st5">[technology]</tspan></text>		</g>
		<g id="shape41-176" transform="translate(423.243,-392.031)">
			<title>Relationship.41</title>
			<desc>Uses [technology]</desc>
			<path d="M0 723.4 L69.29 862.03" class="st1"/>
			<rect x="21.5226" y="789.074" width="30.7614" height="15.9999" class="st6"/>
			<text x="29.22" y="795.07" class="st4">Uses <tspan x="21.52" dy="1.333em" class="st5">[technology]</tspan></text>		</g>
		<g id="shape42-184" transform="translate(619.544,-389.906)">
			<title>Relationship.42</title>
			<desc>Uses [technology]</desc>
			<path d="M0 723.4 L-68.53 859.91" class="st1"/>
			<rect x="-51.7826" y="788.074" width="30.7614" height="15.9999" class="st6"/>
			<text x="-44.09" y="794.07" class="st4">Uses <tspan x="-51.78" dy="1.333em" class="st5">[technology]</tspan></text>		</g>
		<g id="shape43-192" transform="translate(394.806,-389.906)">
			<title>Relationship.43</title>
			<desc>Uses [technology]</desc>
			<path d="M0 723.4 L-14.94 767.27" class="st1"/>
			<rect x="-24.3676" y="742" width="30.7614" height="15.9999" class="st6"/>
			<text x="-16.67" y="748" class="st4">Uses <tspan x="-24.37" dy="1.333em" class="st5">[technology]</tspan></text>		</g>
		<g id="shape44-200" transform="translate(581.102,-401.536)">
			<title>Relationship.44</title>
			<desc>Uses [technology]</desc>
			<path d="M0 723.4 L-130.14 781.67 A3 3 -180 0 0 -135.61 784.12 L-161.13 795.54" class="st1"/>
			<rect x="-100.395" y="753.543" width="30.7614" height="15.9999" class="st6"/>
			<text x="-92.7" y="759.54" class="st4">Uses <tspan x="-100.39" dy="1.333em" class="st5">[technology]</tspan></text>		</g>
		<g id="shape45-208" transform="translate(410.554,-273.657)">
			<title>Relationship.45</title>
			<desc>Uses [technology]</desc>
			<path d="M0 723.4 L33.03 746.76" class="st1"/>
			<rect x="5.17811" y="729.859" width="30.7614" height="15.9999" class="st6"/>
			<text x="12.87" y="735.86" class="st4">Uses <tspan x="5.18" dy="1.333em" class="st5">[technology]</tspan></text>		</g>
		<g id="shape46-216" transform="translate(822.047,-109.984)">
			<title>Software System.46</title>
			<desc>MediaPositivity [Software System] Manages Social and Other Me...</desc>
			<rect x="0" y="641.317" width="117.264" height="82.0845" class="st7"/>
			<text x="27.21" y="667.86" class="st8">MediaPositivity <tspan x="36.31" dy="1.167em" class="st9">[Software System] </tspan><tspan x="4.89" dy="2.187em" class="st10">Manages Social and Other Media </tspan><tspan x="39.16" dy="1.188em" class="st10">Interactions</tspan></text>		</g>
		<g id="shape47-222" transform="translate(592.583,-186.338)">
			<title>Relationship.47</title>
			<desc>Uses [technology]</desc>
			<path d="M0 723.4 L219.73 750.33" class="st1"/>
			<rect x="99.365" y="729.395" width="30.7614" height="15.9999" class="st6"/>
			<text x="107.06" y="735.4" class="st4">Uses <tspan x="99.36" dy="1.333em" class="st5">[technology]</tspan></text>		</g>
		<g id="shape104-230" transform="translate(50.9618,-198.095)">
			<title>Software System.104</title>
			<desc>MediaPositivity [Software System] Manages Social and Other Me...</desc>
			<rect x="0" y="642.5" width="115.574" height="80.9016" class="st7"/>
			<text x="26.37" y="668.45" class="st8">MediaPositivity <tspan x="35.46" dy="1.167em" class="st9">[Software System] </tspan><tspan x="4.05" dy="2.187em" class="st10">Manages Social and Other Media </tspan><tspan x="38.31" dy="1.188em" class="st10">Interactions</tspan></text>		</g>
		<g id="shape105-236" transform="translate(450.85,-202.492)">
			<title>Relationship.105</title>
			<desc>Uses [technology]</desc>
			<path d="M0 723.4 L-274.56 694.47" class="st1"/>
			<rect x="-157.551" y="700.489" width="30.7614" height="15.9999" class="st6"/>
			<text x="-149.86" y="706.49" class="st4">Uses <tspan x="-157.55" dy="1.333em" class="st5">[technology]</tspan></text>		</g>
	</g>
</svg>
