<?xml version="1.0" encoding="UTF-8" standalone="no"?>
<!DOCTYPE svg PUBLIC "-//W3C//DTD SVG 1.1//EN" "http://www.w3.org/Graphics/SVG/1.1/DTD/svg11.dtd">
<!-- Generated by Microsoft Visio, SVG Export svg_1.svg Component - AnalyticsReporting - TelemetryGateway -->
<svg xmlns="http://www.w3.org/2000/svg" xmlns:xlink="http://www.w3.org/1999/xlink" xmlns:ev="http://www.w3.org/2001/xml-events" width="13.6024in" height="10.0197in" viewBox="0 0 979.37 721.417" xml:space="preserve" color-interpolation-filters="sRGB" class="st18">
	<style type="text/css">
	<![CDATA[
		.st1 {fill:none;stroke:none;stroke-linecap:round;stroke-linejoin:round;stroke-width:0.75}
		.st2 {fill:#000000;font-family:Calibri;font-size:1.00001em}
		.st3 {fill:none;stroke:#444444;stroke-dasharray:7.5,4.5;stroke-linecap:round;stroke-linejoin:round;stroke-width:0.5}
		.st4 {fill:#000000;font-family:Calibri;font-size:0.833336em}
		.st5 {font-size:0.599989em}
		.st6 {fill:#176361;stroke:#145553;stroke-linecap:round;stroke-linejoin:round;stroke-width:1}
		.st7 {fill:#ffffff;font-family:Calibri;font-size:0.833336em}
		.st8 {font-size:0.799995em}
		.st9 {marker-end:url(#mrkr13-25);stroke:#444444;stroke-dasharray:5.25,3.75;stroke-linecap:round;stroke-linejoin:round;stroke-width:0.75}
		.st10 {fill:#444444;fill-opacity:1;stroke:#444444;stroke-opacity:1;stroke-width:0.22935779816514}
		.st11 {fill:#ffffff;stroke:none;stroke-linecap:butt;stroke-width:7.2}
		.st12 {fill:#000000;font-family:Calibri;font-size:0.666664em}
		.st13 {font-size:0.749991em}
		.st14 {fill:#999999;stroke:#8b8b8b;stroke-linecap:round;stroke-linejoin:round;stroke-width:1}
		.st15 {font-size:1em}
		.st16 {fill:#218e8a}
		.st17 {stroke:#1e807c;stroke-linecap:round;stroke-linejoin:round;stroke-width:1}
		.st18 {fill:none;fill-rule:evenodd;font-size:12px;overflow:visible;stroke-linecap:square;stroke-miterlimit:3}
	]]>
	</style>

	<defs id="Markers">
		<g id="lend13">
			<path d="M 3 1 L 0 0 L 3 -1 L 3 1 " style="stroke:none"/>
		</g>
		<marker id="mrkr13-25" class="st10" refX="-13.08" orient="auto" markerUnits="strokeWidth" overflow="visible">
			<use xlink:href="#lend13" transform="scale(-4.36,-4.36) "/>
		</marker>
	</defs>
	<g>
		<title>Component - AnalyticsReporting - TelemetryGateway</title>
		<g id="shape3-1" transform="translate(23.5922,-18)">
			<title>Sheet.3</title>
			<desc>[Component] AnalyticsReporting System – TelemetryGateway</desc>
			<rect x="0" y="668.126" width="330.739" height="53.2913" class="st1"/>
			<text x="14.62" y="698.37" class="st2">[Component] AnalyticsReporting System – TelemetryGateway</text>		</g>
		<g id="shape4-4" transform="translate(223.37,-86.4567)">
			<title>Container Boundary</title>
			<desc>TelemetryGateway [Container]</desc>
			<path d="M0 721.42 L655.37 721.42 L655.37 165.58 L0 165.58 L0 721.42 Z" class="st3"/>
			<text x="4" y="702.92" class="st4">TelemetryGateway<tspan x="4" dy="1.917em" class="st5">[Container]</tspan></text>		</g>
		<g id="shape5-8" transform="translate(50.9079,-410.315)">
			<title>Software System.15</title>
			<desc>OrganizationalIncentives [Software System] Manages Charity an...</desc>
			<rect x="0" y="632.126" width="127.559" height="89.2913" class="st6"/>
			<text x="13.56" y="662.27" class="st7">OrganizationalIncentives <tspan x="41.46" dy="1.167em" class="st5">[Software System] </tspan><tspan x="14.56" dy="2.187em" class="st8">Manages Charity and Business </tspan><tspan x="4.2" dy="1.188em" class="st8">Relations and Donation/Redemption</tspan></text>		</g>
		<g id="shape6-14" transform="translate(50.9079,-537.874)">
			<title>Software System</title>
			<desc>CommunityConnectChange [Software System] System for community...</desc>
			<rect x="0" y="632.126" width="127.559" height="89.2913" class="st6"/>
			<text x="8.16" y="662.27" class="st7">CommunityConnectChange <tspan x="41.46" dy="1.167em" class="st5">[Software System] </tspan><tspan x="6.36" dy="2.187em" class="st8">System for community members to </tspan><tspan x="36.35" dy="1.188em" class="st8">interact for good</tspan></text>		</g>
		<g id="shape7-20" transform="translate(178.467,-589.606)">
			<title>Relationship.134</title>
			<desc>Pushes Telemetry [mTLS]</desc>
			<path d="M0 728.5 L330.91 728.5" class="st9"/>
			<rect x="141.497" y="720.434" width="57.7414" height="15.9999" class="st11"/>
			<text x="141.5" y="726.43" class="st12">Pushes Telemetry <tspan x="162.03" dy="1.333em" class="st13">[mTLS]</tspan></text>		</g>
		<g id="shape8-29" transform="translate(178.467,-472.738)">
			<title>Relationship.135</title>
			<desc>Pushes Telemetry [mTLS]</desc>
			<path d="M0 721.42 L331.27 629.08" class="st9"/>
			<rect x="141.478" y="665.864" width="57.7414" height="15.9999" class="st11"/>
			<text x="141.48" y="671.86" class="st12">Pushes Telemetry <tspan x="162.01" dy="1.333em" class="st13">[mTLS]</tspan></text>		</g>
		<g id="shape9-37" transform="translate(519.188,-545.315)">
			<title>Component Gray</title>
			<desc>OpenTelemetry Collector [Component: GOLang] Telemetry Collect...</desc>
			<rect x="0" y="647.008" width="106.299" height="74.4094" class="st14"/>
			<text x="21.37" y="660.71" class="st4">OpenTelemetry <tspan x="34.9" dy="1em" class="st15">Collector </tspan><tspan x="25.88" dy="1.167em" class="st5">[Component: GOLang] </tspan><tspan x="7.16" dy="2.187em" class="st8">Telemetry Collector Pipeline </tspan><tspan x="12.94" dy="1em" class="st8">in Gateway Deployment. </tspan><tspan x="7.81" dy="1.188em" class="st8">Receives/Processes/Exports</tspan></text>		</g>
		<g id="shape10-45" transform="translate(489.26,-109.531)">
			<title>Database</title>
			<desc>Operational Telemetry Storage [S3 Compatible] Logs, Metric, T...</desc>
			<path d="M98.63 661.5 A48.8613 9.13871 -180 0 0 49.84 652.37 L49.77 652.37 A49.8429 9.35731 -180 0 0 -0 661.57 L0 712.06&#xA;						 A49.8428 9.35729 -180 0 0 49.77 721.42 L49.84 721.42 A48.8613 9.13871 -180 0 0 98.63 712.28 L98.63 661.5&#xA;						 Z" class="st16"/>
			<path d="M98.63 661.5 A48.8613 9.13871 -180 0 0 49.84 652.37 L49.77 652.37 A49.8429 9.35731 -180 0 0 -0 661.57 L0 712.06&#xA;						 A49.8428 9.35729 -180 0 0 49.77 721.42 L49.84 721.42 A48.8613 9.13871 -180 0 0 98.63 712.28 L98.63 661.5" class="st17"/>
			<path d="M0.07 661.42 A49.8428 9.35729 -180 0 0 49.92 670.78" class="st17"/>
			<path d="M98.65 661.64 A48.8613 9.13871 0 0 1 49.78 670.78" class="st17"/>
			<text x="25.13" y="677.6" class="st7">Operational <tspan x="11.88" dy="1em" class="st15">Telemetry Storage </tspan><tspan x="29.86" dy="1.167em" class="st5">[S3 Compatible]  </tspan><tspan x="8.94" dy="1.5em" class="st15">Logs, Metric, Traces </tspan><tspan x="17.08" dy="1em" class="st15">and Event Store</tspan></text>		</g>
		<g id="shape11-55" transform="translate(282.614,-382.082)">
			<title>Component Gray.11</title>
			<desc>Logs Distributor [Component: technology] Accepts Log batches,...</desc>
			<rect x="0" y="641.452" width="114.236" height="79.9654" class="st14"/>
			<text x="24.89" y="666.93" class="st4">Logs Distributor <tspan x="25.87" dy="1.167em" class="st5">[Component: technology] </tspan><tspan x="5" dy="2.187em" class="st8">Accepts Log batches, distributes </tspan><tspan x="7.51" dy="1.188em" class="st8">to ingestor. Scales horizontally</tspan></text>		</g>
		<g id="shape12-61" transform="translate(283.039,-240.35)">
			<title>Component Gray.12</title>
			<desc>Logs Ingestor [Component: technology] Stores and indexes Logs...</desc>
			<rect x="0" y="641.452" width="114.236" height="79.9654" class="st14"/>
			<text x="30.2" y="666.93" class="st4">Logs Ingestor <tspan x="25.87" dy="1.167em" class="st5">[Component: technology] </tspan><tspan x="6.58" dy="2.187em" class="st8">Stores and indexes Logs. Scales </tspan><tspan x="37.9" dy="1.188em" class="st8">horizontally</tspan></text>		</g>
		<g id="shape13-67" transform="translate(519.188,-545.856)">
			<title>Relationship</title>
			<desc>Exports [mTLS]</desc>
			<path d="M0 721.42 L-114.26 800.24" class="st9"/>
			<rect x="-73.3268" y="755.672" width="24.3905" height="15.9999" class="st11"/>
			<text x="-73.33" y="761.67" class="st12">Exports <tspan x="-69.47" dy="1.333em" class="st13">[mTLS]</tspan></text>		</g>
		<g id="shape14-75" transform="translate(332.858,-382.082)">
			<title>Relationship.14</title>
			<desc>Distributes [mTLS]</desc>
			<path d="M6.99 721.42 L7.15 773.37" class="st9"/>
			<rect x="-10.5363" y="744.302" width="35.3861" height="15.9999" class="st11"/>
			<text x="-10.54" y="750.3" class="st12">Distributes <tspan x="-1.18" dy="1.333em" class="st13">[mTLS]</tspan></text>		</g>
		<g id="shape15-83" transform="translate(397.276,-241.104)">
			<title>Relationship.15</title>
			<desc>Stores/Indexes [mTLS]</desc>
			<path d="M0 721.42 L90.03 783.25" class="st9"/>
			<rect x="24.8284" y="747.052" width="48.5387" height="15.9999" class="st11"/>
			<text x="24.83" y="753.05" class="st12">Stores/Indexes <tspan x="40.76" dy="1.333em" class="st13">[mTLS]</tspan></text>		</g>
		<g id="shape16-91" transform="translate(425.197,-382.082)">
			<title>Component Gray.16</title>
			<desc>Metrics Distributor [Component: technology] Accepts Metrics b...</desc>
			<rect x="0" y="641.452" width="114.236" height="79.9654" class="st14"/>
			<text x="18.54" y="662.93" class="st4">Metrics Distributor <tspan x="25.87" dy="1.167em" class="st5">[Component: technology] </tspan><tspan x="16.6" dy="2.187em" class="st8">Accepts Metrics batches, </tspan><tspan x="9.39" dy="1em" class="st8">distributes to ingestor. Scales </tspan><tspan x="37.9" dy="1.188em" class="st8">horizontally</tspan></text>		</g>
		<g id="shape17-98" transform="translate(425.622,-240.35)">
			<title>Component Gray.17</title>
			<desc>Metrics Ingestor [Component: technology] Stores and indexes M...</desc>
			<rect x="0" y="641.452" width="114.236" height="79.9654" class="st14"/>
			<text x="23.85" y="666.93" class="st4">Metrics Ingestor <tspan x="25.87" dy="1.167em" class="st5">[Component: technology] </tspan><tspan x="12.32" dy="2.187em" class="st8">Stores and indexes Metrics. </tspan><tspan x="27.08" dy="1.188em" class="st8">Scales horizontally</tspan></text>		</g>
		<g id="shape18-104" transform="translate(475.441,-382.082)">
			<title>Relationship.18</title>
			<desc>Distributes [mTLS]</desc>
			<path d="M6.99 721.42 L7.15 773.37" class="st9"/>
			<rect x="-10.5363" y="744.302" width="35.3861" height="15.9999" class="st11"/>
			<text x="-10.54" y="750.3" class="st12">Distributes <tspan x="-1.18" dy="1.333em" class="st13">[mTLS]</tspan></text>		</g>
		<g id="shape19-112" transform="translate(499.124,-240.35)">
			<title>Relationship.19</title>
			<desc>Stores/Indexes [mTLS]</desc>
			<path d="M0 721.42 L21.76 774.51" class="st9"/>
			<rect x="-11.4657" y="744.478" width="48.5387" height="15.9999" class="st11"/>
			<text x="-11.47" y="750.48" class="st12">Stores/Indexes <tspan x="4.47" dy="1.333em" class="st13">[mTLS]</tspan></text>		</g>
		<g id="shape20-120" transform="translate(566.929,-384.408)">
			<title>Component Gray.20</title>
			<desc>Trace Distributor [Component: technology] Accepts Trace batch...</desc>
			<rect x="0" y="641.452" width="114.236" height="79.9654" class="st14"/>
			<text x="22.76" y="662.93" class="st4">Trace Distributor <tspan x="25.87" dy="1.167em" class="st5">[Component: technology] </tspan><tspan x="19.97" dy="2.187em" class="st8">Accepts Trace batches, </tspan><tspan x="9.39" dy="1em" class="st8">distributes to ingestor. Scales </tspan><tspan x="37.9" dy="1.188em" class="st8">horizontally</tspan></text>		</g>
		<g id="shape21-127" transform="translate(567.354,-240.35)">
			<title>Component Gray.21</title>
			<desc>Trace Ingestor [Component: technology] Stores and indexes Tra...</desc>
			<rect x="0" y="641.452" width="114.236" height="79.9654" class="st14"/>
			<text x="28.07" y="666.93" class="st4">Trace Ingestor <tspan x="25.87" dy="1.167em" class="st5">[Component: technology] </tspan><tspan x="14.14" dy="2.187em" class="st8">Stores and indexes Traces. </tspan><tspan x="27.08" dy="1.188em" class="st8">Scales horizontally</tspan></text>		</g>
		<g id="shape22-133" transform="translate(617.173,-384.408)">
			<title>Relationship.22</title>
			<desc>Distributes [mTLS]</desc>
			<path d="M6.99 721.42 L7.15 775.7" class="st9"/>
			<rect x="-10.5363" y="745.465" width="35.3861" height="15.9999" class="st11"/>
			<text x="-10.54" y="751.47" class="st12">Distributes <tspan x="-1.18" dy="1.333em" class="st13">[mTLS]</tspan></text>		</g>
		<g id="shape23-141" transform="translate(599.273,-240.35)">
			<title>Relationship.23</title>
			<desc>Stores/Indexes [mTLS]</desc>
			<path d="M0 721.42 L-34.25 775.75" class="st9"/>
			<rect x="-43.9487" y="744.773" width="48.5387" height="15.9999" class="st11"/>
			<text x="-43.95" y="750.77" class="st12">Stores/Indexes <tspan x="-28.02" dy="1.333em" class="st13">[mTLS]</tspan></text>		</g>
		<g id="shape24-149" transform="translate(707.864,-382.082)">
			<title>Component Gray.24</title>
			<desc>EventsDistributor [Component: technology] Accepts Events batc...</desc>
			<rect x="0" y="641.452" width="114.236" height="79.9654" class="st14"/>
			<text x="21.62" y="662.93" class="st4">EventsDistributor <tspan x="25.87" dy="1.167em" class="st5">[Component: technology] </tspan><tspan x="18.16" dy="2.187em" class="st8">Accepts Events batches, </tspan><tspan x="9.39" dy="1em" class="st8">distributes to ingestor. Scales </tspan><tspan x="37.9" dy="1.188em" class="st8">horizontally</tspan></text>		</g>
		<g id="shape25-156" transform="translate(708.661,-240.35)">
			<title>Component Gray.25</title>
			<desc>Events Ingestor [Component: technology] Stores and indexes Ev...</desc>
			<rect x="0" y="641.452" width="114.236" height="79.9654" class="st14"/>
			<text x="25.8" y="666.93" class="st4">Events Ingestor <tspan x="25.87" dy="1.167em" class="st5">[Component: technology] </tspan><tspan x="13.89" dy="2.187em" class="st8">Stores and indexes Events. </tspan><tspan x="27.08" dy="1.188em" class="st8">Scales horizontally</tspan></text>		</g>
		<g id="shape26-162" transform="translate(758.294,-382.082)">
			<title>Relationship.26</title>
			<desc>Distributes [mTLS]</desc>
			<path d="M6.91 721.42 L7.21 773.37" class="st9"/>
			<rect x="-10.5363" y="744.302" width="35.3861" height="15.9999" class="st11"/>
			<text x="-10.54" y="750.3" class="st12">Distributes <tspan x="-1.18" dy="1.333em" class="st13">[mTLS]</tspan></text>		</g>
		<g id="shape27-170" transform="translate(708.661,-246.072)">
			<title>Relationship.27</title>
			<desc>Stores/Indexes [mTLS]</desc>
			<path d="M0 721.42 L-114.69 790.21" class="st9"/>
			<rect x="-85.788" y="750.399" width="48.5387" height="15.9999" class="st11"/>
			<text x="-85.79" y="756.4" class="st12">Stores/Indexes <tspan x="-69.86" dy="1.333em" class="st13">[mTLS]</tspan></text>		</g>
		<g id="shape32-178" transform="translate(551.464,-545.315)">
			<title>Relationship.32</title>
			<desc>Exports [mTLS]</desc>
			<path d="M0 721.42 L-41.92 796.13" class="st9"/>
			<rect x="-35.4936" y="755.087" width="24.3905" height="15.9999" class="st11"/>
			<text x="-35.49" y="761.09" class="st12">Exports <tspan x="-31.64" dy="1.333em" class="st13">[mTLS]</tspan></text>		</g>
		<g id="shape33-186" transform="translate(584.504,-545.315)">
			<title>Relationship.33</title>
			<desc>Exports [mTLS]</desc>
			<path d="M0 721.42 L23.42 793.03" class="st9"/>
			<rect x="1.10622" y="753.868" width="24.3905" height="15.9999" class="st11"/>
			<text x="1.11" y="759.87" class="st12">Exports <tspan x="4.96" dy="1.333em" class="st13">[mTLS]</tspan></text>		</g>
		<g id="shape34-194" transform="translate(617.006,-545.315)">
			<title>Relationship.34</title>
			<desc>Exports [mTLS]</desc>
			<path d="M0 721.42 L92.43 798.41" class="st9"/>
			<rect x="37.8379" y="754.999" width="24.3905" height="15.9999" class="st11"/>
			<text x="37.84" y="761" class="st12">Exports <tspan x="41.7" dy="1.333em" class="st13">[mTLS]</tspan></text>		</g>
	</g>
</svg>
