<?xml version="1.0" encoding="UTF-8" standalone="no"?>
<!DOCTYPE svg PUBLIC "-//W3C//DTD SVG 1.1//EN" "http://www.w3.org/Graphics/SVG/1.1/DTD/svg11.dtd">
<!-- Generated by Microsoft Visio, SVG Export svg_1.svg Organization Incentives -->
<svg xmlns="http://www.w3.org/2000/svg" xmlns:xlink="http://www.w3.org/1999/xlink" xmlns:ev="http://www.w3.org/2001/xml-events" width="9.0748in" height="9.95276in" viewBox="0 0 653.386 716.598" xml:space="preserve" color-interpolation-filters="sRGB" class="st16">
	<style type="text/css">
	<![CDATA[
		.st1 {fill:#176361;stroke:#145553;stroke-linecap:round;stroke-linejoin:round;stroke-width:1}
		.st2 {fill:#ffffff;font-family:Calibri;font-size:0.833336em}
		.st3 {font-size:0.599989em}
		.st4 {font-size:0.799995em}
		.st5 {fill:#114745;stroke:#0d3937;stroke-linecap:round;stroke-linejoin:round;stroke-width:1}
		.st6 {marker-end:url(#mrkr13-40);stroke:#444444;stroke-dasharray:5.25,3.75;stroke-linecap:round;stroke-linejoin:round;stroke-width:0.75}
		.st7 {fill:#444444;fill-opacity:1;stroke:#444444;stroke-opacity:1;stroke-width:0.22935779816514}
		.st8 {fill:#ffffff;stroke:none;stroke-linecap:butt}
		.st9 {fill:#000000;font-family:Calibri;font-size:0.666664em}
		.st10 {font-size:0.749991em}
		.st11 {fill:#ffffff;stroke:none;stroke-linecap:butt;stroke-width:7.2}
		.st12 {fill:none;stroke:none;stroke-linecap:round;stroke-linejoin:round;stroke-width:0.75}
		.st13 {fill:#000000;font-family:Calibri;font-size:1.00001em}
		.st14 {fill:#999999;stroke:#8b8b8b;stroke-linecap:round;stroke-linejoin:round;stroke-width:1}
		.st15 {font-size:1em}
		.st16 {fill:none;fill-rule:evenodd;font-size:12px;overflow:visible;stroke-linecap:square;stroke-miterlimit:3}
	]]>
	</style>

	<defs id="Markers">
		<g id="lend13">
			<path d="M 3 1 L 0 0 L 3 -1 L 3 1 " style="stroke:none"/>
		</g>
		<marker id="mrkr13-40" class="st7" refX="-13.08" orient="auto" markerUnits="strokeWidth" overflow="visible">
			<use xlink:href="#lend13" transform="scale(-4.36,-4.36) "/>
		</marker>
	</defs>
	<g>
		<title>Context - Organization Incentives</title>
		<g id="shape1-1" transform="translate(252.283,-359.717)">
			<title>Software System.15</title>
			<desc>OrganizationalIncentives [Software System] Manages Charity an...</desc>
			<rect x="0" y="617.485" width="141.591" height="99.1134" class="st1"/>
			<text x="20.58" y="652.54" class="st2">OrganizationalIncentives <tspan x="48.47" dy="1.167em" class="st3">[Software System] </tspan><tspan x="5.65" dy="2.187em" class="st4">Manages Charity and Business Relations </tspan><tspan x="27.15" dy="1.188em" class="st4">and Donation/Redemption</tspan></text>		</g>
		<g id="shape2-7" transform="translate(365.669,-563.528)">
			<title>Person</title>
			<desc>Charity [Person] Organizational member represents social impa...</desc>
			<path d="M37.41 642.19 L19.84 642.19 A19.8425 19.8425 -180 0 0 -0 662.03 L0 696.76 A19.8425 19.8425 -180 0 0 19.84 716.6&#xA;						 L86.46 716.6 A19.8425 19.8425 -180 0 0 106.3 696.76 L106.3 662.03 A19.8425 19.8425 -180 0 0 86.46 642.19&#xA;						 L68.89 642.19 A26.3622 26.5039 -180 1 0 37.41 642.19 Z" class="st5"/>
			<text x="38.63" y="658.85" class="st2">Charity <tspan x="42.89" dy="1.667em" class="st3">[Person]  </tspan><tspan x="14.72" dy="2.312em" class="st4">Organizational member </tspan><tspan x="13.63" dy="1em" class="st4">represents social impact </tspan><tspan x="41.98" dy="1.188em" class="st4">charity</tspan></text>		</g>
		<g id="shape3-14" transform="translate(493.228,-503.438)">
			<title>Person.3</title>
			<desc>Business [Person] Organizational member represents business l...</desc>
			<path d="M37.41 642.19 L19.84 642.19 A19.8425 19.8425 -180 0 0 -0 662.03 L0 696.76 A19.8425 19.8425 -180 0 0 19.84 716.6&#xA;						 L86.46 716.6 A19.8425 19.8425 -180 0 0 106.3 696.76 L106.3 662.03 A19.8425 19.8425 -180 0 0 86.46 642.19&#xA;						 L68.89 642.19 A26.3622 26.5039 -180 1 0 37.41 642.19 Z" class="st5"/>
			<text x="35.67" y="658.85" class="st2">Business <tspan x="42.89" dy="1.667em" class="st3">[Person]  </tspan><tspan x="14.72" dy="2.312em" class="st4">Organizational member </tspan><tspan x="8.15" dy="1em" class="st4">represents business looking </tspan><tspan x="26.34" dy="1.188em" class="st4">for social impact</tspan></text>		</g>
		<g id="shape4-21" transform="translate(46.7717,-506.835)">
			<title>Person.4</title>
			<desc>Civilian [Member] A non-police officer community member</desc>
			<path d="M37.41 642.19 L19.84 642.19 A19.8425 19.8425 -180 0 0 -0 662.03 L0 696.76 A19.8425 19.8425 -180 0 0 19.84 716.6&#xA;						 L86.46 716.6 A19.8425 19.8425 -180 0 0 106.3 696.76 L106.3 662.03 A19.8425 19.8425 -180 0 0 86.46 642.19&#xA;						 L68.89 642.19 A26.3622 26.5039 -180 1 0 37.41 642.19 Z" class="st5"/>
			<text x="38.61" y="662.85" class="st2">Civilian <tspan x="40.74" dy="1.667em" class="st3">[Member]  </tspan><tspan x="21.22" dy="2.312em" class="st4">A non</tspan><tspan class="st4">-</tspan><tspan class="st4">police officer </tspan><tspan x="19.92" dy="1.188em" class="st4">community member</tspan></text>		</g>
		<g id="shape5-29" transform="translate(195.591,-563.528)">
			<title>Person.14</title>
			<desc>Officer [Member] Police Officer community member</desc>
			<path d="M37.41 642.19 L19.84 642.19 A19.8425 19.8425 -180 0 0 -0 662.03 L0 696.76 A19.8425 19.8425 -180 0 0 19.84 716.6&#xA;						 L86.46 716.6 A19.8425 19.8425 -180 0 0 106.3 696.76 L106.3 662.03 A19.8425 19.8425 -180 0 0 86.46 642.19&#xA;						 L68.89 642.19 A26.3622 26.5039 -180 1 0 37.41 642.19 Z" class="st5"/>
			<text x="39.29" y="662.85" class="st2">Officer <tspan x="40.74" dy="1.667em" class="st3">[Member]  </tspan><tspan x="12.1" dy="2.312em" class="st4">Police Officer community </tspan><tspan x="39.28" dy="1.188em" class="st4">member</tspan></text>		</g>
		<g id="shape6-35" transform="translate(153.071,-530.136)">
			<title>Relationship</title>
			<desc>Redeems/Donates [HTTPS]</desc>
			<path d="M0 716.6 L92.31 782.22" class="st6"/>
			<rect x="20.1622" y="744.196" width="60.0617" height="15.9999" class="st8"/>
			<text x="20.16" y="750.2" class="st9">Redeems/Donates <tspan x="40.63" dy="1.333em" class="st10">[HTTPS]</tspan></text>		</g>
		<g id="shape7-44" transform="translate(269.828,-563.528)">
			<title>Relationship.7</title>
			<desc>Donates [HTTPS]</desc>
			<path d="M0 716.6 L32.94 812.02" class="st6"/>
			<rect x="4.65616" y="760.927" width="26.9646" height="15.9999" class="st8"/>
			<text x="4.66" y="766.93" class="st9">Donates <tspan x="8.58" dy="1.333em" class="st10">[HTTPS]</tspan></text>		</g>
		<g id="shape8-52" transform="translate(391.66,-563.528)">
			<title>Relationship.8</title>
			<desc>Publishes Needs [HTTPS]</desc>
			<path d="M0 716.6 L-42.56 812.33" class="st6"/>
			<rect x="-49.6697" y="760.978" width="52.9173" height="15.9999" class="st8"/>
			<text x="-49.67" y="766.98" class="st9">Publishes Needs <tspan x="-32.77" dy="1.333em" class="st10">[HTTPS]</tspan></text>		</g>
		<g id="shape9-60" transform="translate(493.228,-527.572)">
			<title>Relationship.9</title>
			<desc>Manages Storefront [HTTPS]</desc>
			<path d="M0 716.6 L-91.3 780.08" class="st6"/>
			<rect x="-82.1721" y="743.196" width="65.066" height="15.9999" class="st11"/>
			<text x="-82.17" y="749.2" class="st9">Manages Storefront <tspan x="-59.2" dy="1.333em" class="st10">[HTTPS]</tspan></text>		</g>
		<g id="shape10-68" transform="translate(493.087,-371.092)">
			<title>Software System.12</title>
			<desc>AnalyticsReporting [Software System] Interaction and Operatio...</desc>
			<rect x="0" y="642.189" width="106.299" height="74.4094" class="st1"/>
			<text x="14.92" y="660.89" class="st2">AnalyticsReporting <tspan x="30.83" dy="1.167em" class="st3">[Software System] </tspan><tspan x="7.96" dy="2.187em" class="st4">Interaction and Operational </tspan><tspan x="6.08" dy="1em" class="st4">data management/analytics/</tspan><tspan x="37.92" dy="1.188em" class="st4">reporting</tspan></text>		</g>
		<g id="shape11-75" transform="translate(29.0551,-405.425)">
			<title>Software System.10</title>
			<desc>MediaPositivity [Software System] Manages Social and Other Me...</desc>
			<rect x="0" y="642.189" width="106.299" height="74.4094" class="st1"/>
			<text x="21.73" y="664.89" class="st2">MediaPositivity <tspan x="30.83" dy="1.167em" class="st3">[Software System] </tspan><tspan x="10.66" dy="2.187em" class="st4">Manages Social and Other </tspan><tspan x="22.43" dy="1.188em" class="st4">Media Interactions</tspan></text>		</g>
		<g id="shape12-81" transform="translate(393.874,-415.833)">
			<title>Relationship.12</title>
			<desc>Pushes Telemetry [mTLS]</desc>
			<path d="M0 723.47 L89.4 723.86" class="st6"/>
			<rect x="20.7381" y="715.615" width="57.7414" height="15.9999" class="st11"/>
			<text x="20.74" y="721.62" class="st9">Pushes Telemetry <tspan x="41.27" dy="1.333em" class="st10">[mTLS]</tspan></text>		</g>
		<g id="shape13-89" transform="translate(252.283,-419.077)">
			<title>Relationship.13</title>
			<desc>Generates [Event]</desc>
			<path d="M0 716.6 L-107.21 701.75" class="st6"/>
			<rect x="-75.2868" y="700.572" width="33.6206" height="15.9999" class="st11"/>
			<text x="-75.29" y="706.57" class="st9">Generates <tspan x="-67.21" dy="1.333em" class="st10">[Event]</tspan></text>		</g>
		<g id="shape14-97" transform="translate(25.5118,-21.2598)">
			<title>Sheet.14</title>
			<desc>[System Context] OperationalIncentives System</desc>
			<rect x="0" y="663.307" width="274.677" height="53.2913" class="st12"/>
			<text x="21.46" y="693.55" class="st13">[System Context] OperationalIncentives System</text>		</g>
		<g id="shape15-100" transform="translate(138.898,-214.441)">
			<title>Software System Gray</title>
			<desc>Retail Systems [Software System] External Systems of Business...</desc>
			<rect x="0" y="642.189" width="106.299" height="74.4094" class="st14"/>
			<text x="23.82" y="660.89" class="st2">Retail Systems <tspan x="30.83" dy="1.167em" class="st3">[Software System] </tspan><tspan x="21.36" dy="2.187em" class="st4">External Systems of </tspan><tspan x="7.74" dy="1em" class="st4">Businesses looking to spend </tspan><tspan x="13.2" dy="1.188em" class="st4">on positive social impact</tspan></text>		</g>
		<g id="shape16-107" transform="translate(281.884,-359.717)">
			<title>Relationship.16</title>
			<desc>Integrates</desc>
			<path d="M0 716.6 L-52.64 779.92" class="st6"/>
			<rect x="-45.9289" y="748.078" width="33.0543" height="7.99997" class="st11"/>
			<text x="-45.93" y="754.08" class="st9">Integrates</text>		</g>
		<g id="shape17-114" transform="translate(271.701,-214.441)">
			<title>Software System Gray.17</title>
			<desc>Charity Systems [Software System] External Systems of Chariti...</desc>
			<rect x="0" y="642.189" width="106.299" height="74.4094" class="st14"/>
			<text x="20.87" y="664.89" class="st2">Charity Systems <tspan x="30.83" dy="1.167em" class="st3">[Software System] </tspan><tspan x="6.18" dy="2.187em" class="st4">External Systems of Charities </tspan><tspan x="13.64" dy="1.188em" class="st4">Looking for Engagement</tspan></text>		</g>
		<g id="shape18-120" transform="translate(316.948,-359.717)">
			<title>Relationship.18</title>
			<desc>Integrates</desc>
			<path d="M6.69 716.6 L7.37 777.66" class="st6"/>
			<rect x="-9.37032" y="748.032" width="33.0543" height="7.99997" class="st11"/>
			<text x="-9.37" y="754.03" class="st9">Integrates</text>		</g>
		<g id="shape19-127" transform="translate(408.189,-216.213)">
			<title>Software System Gray.19</title>
			<desc>Municipality Systems [Software System] External Systems of Mu...</desc>
			<rect x="0" y="642.189" width="106.299" height="74.4094" class="st14"/>
			<text x="10.2" y="660.89" class="st2">Municipality Systems <tspan x="30.83" dy="1.167em" class="st3">[Software System] </tspan><tspan x="21.36" dy="2.187em" class="st4">External Systems of </tspan><tspan x="13.86" dy="1em" class="st4">Municipalities Willing to </tspan><tspan x="8.29" dy="1.188em" class="st4">Reward Positive Interaction</tspan></text>		</g>
		<g id="shape20-134" transform="translate(379.416,-359.717)">
			<title>Relationship.20</title>
			<desc>Integrates</desc>
			<path d="M0 716.6 L83.31 779.77" class="st6"/>
			<rect x="29.0819" y="747.092" width="33.0543" height="7.99997" class="st11"/>
			<text x="29.08" y="753.09" class="st9">Integrates</text>		</g>
		<g id="shape21-141" transform="translate(145.984,-76.252)">
			<title>Person Gray</title>
			<desc>Business Representative Administers Storefront</desc>
			<path d="M27.43 662.03 L14.55 662.03 A14.5512 14.5512 -180 0 0 0 676.58 L0 702.05 A14.5512 14.5512 -180 0 0 14.55 716.6&#xA;						 L63.4 716.6 A14.5512 14.5512 -180 0 0 77.95 702.05 L77.95 676.58 A14.5512 14.5512 -180 0 0 63.4 662.03 L50.52&#xA;						 662.03 A19.3323 19.4362 -180 1 0 27.43 662.03 Z" class="st14"/>
			<text x="21.5" y="672.78" class="st2">Business <tspan x="8.21" dy="1em" class="st15">Representative  </tspan><tspan x="19.57" dy="2.312em" class="st4">Administers </tspan><tspan x="22.14" dy="1.188em" class="st4">Storefront</tspan></text>		</g>
		<g id="shape22-147" transform="translate(181.619,-165.692)">
			<title>Relationship.22</title>
			<desc>Uses</desc>
			<path d="M5.76 716.6 L7.88 677.65" class="st6"/>
			<rect x="-0.668743" y="688.22" width="15.371" height="7.99997" class="st11"/>
			<text x="-0.67" y="694.22" class="st9">Uses</text>		</g>
		<g id="shape23-154" transform="translate(285.874,-76.252)">
			<title>Person Gray.23</title>
			<desc>Charity Representative Publicizes</desc>
			<path d="M27.43 662.03 L14.55 662.03 A14.5512 14.5512 -180 0 0 0 676.58 L0 702.05 A14.5512 14.5512 -180 0 0 14.55 716.6&#xA;						 L63.4 716.6 A14.5512 14.5512 -180 0 0 77.95 702.05 L77.95 676.58 A14.5512 14.5512 -180 0 0 63.4 662.03 L50.52&#xA;						 662.03 A19.3323 19.4362 -180 1 0 27.43 662.03 Z" class="st14"/>
			<text x="24.46" y="676.78" class="st2">Charity <tspan x="8.21" dy="1em" class="st15">Representative  </tspan><tspan x="23.13" dy="2.5em" class="st4">Publicizes</tspan></text>		</g>
		<g id="shape24-159" transform="translate(331.937,-165.846)">
			<title>Relationship.24</title>
			<desc>Uses</desc>
			<path d="M-7.09 716.6 L-7.09 677.81" class="st6"/>
			<rect x="-14.8421" y="688.3" width="15.371" height="7.99997" class="st11"/>
			<text x="-14.84" y="694.3" class="st9">Uses</text>		</g>
		<g id="shape25-166" transform="translate(422.362,-76.252)">
			<title>Person Gray.25</title>
			<desc>Municipality Representative Administers Incentives</desc>
			<path d="M27.43 662.03 L14.55 662.03 A14.5512 14.5512 -180 0 0 0 676.58 L0 702.05 A14.5512 14.5512 -180 0 0 14.55 716.6&#xA;						 L63.4 716.6 A14.5512 14.5512 -180 0 0 77.95 702.05 L77.95 676.58 A14.5512 14.5512 -180 0 0 63.4 662.03 L50.52&#xA;						 662.03 A19.3323 19.4362 -180 1 0 27.43 662.03 Z" class="st14"/>
			<text x="13.78" y="672.78" class="st2">Municipality <tspan x="8.21" dy="1em" class="st15">Representative  </tspan><tspan x="19.57" dy="2.312em" class="st4">Administers </tspan><tspan x="22.46" dy="1.188em" class="st4">Incentives</tspan></text>		</g>
		<g id="shape26-172" transform="translate(454.252,-165.846)">
			<title>Relationship.26</title>
			<desc>Uses</desc>
			<path d="M7.09 716.6 L7.09 676.04" class="st6"/>
			<rect x="-0.668901" y="687.414" width="15.371" height="7.99997" class="st11"/>
			<text x="-0.67" y="693.41" class="st9">Uses</text>		</g>
		<g id="shape53-179" transform="translate(25.5118,-304.016)">
			<title>Software System</title>
			<desc>CommunityConnectChange [Software System] System for community...</desc>
			<rect x="0" y="642.189" width="122.533" height="74.4094" class="st1"/>
			<text x="5.65" y="664.89" class="st2">CommunityConnectChange <tspan x="38.94" dy="1.167em" class="st3">[Software System] </tspan><tspan x="8.2" dy="2.187em" class="st4">System for community members </tspan><tspan x="29.49" dy="1.188em" class="st4">to interact for good</tspan></text>		</g>
		<g id="shape54-185" transform="translate(148.044,-358.865)">
			<title>Relationship.54</title>
			<desc>PointsAwarded [Event]</desc>
			<path d="M0 716.6 L94.81 689.29" class="st6"/>
			<rect x="27.3254" y="693.521" width="49.5541" height="15.9999" class="st11"/>
			<text x="27.33" y="699.52" class="st9">PointsAwarded <tspan x="43.37" dy="1.333em" class="st10">[Event]</tspan></text>		</g>
	</g>
</svg>
