<?xml version="1.0" encoding="UTF-8" standalone="no"?>
<!DOCTYPE svg PUBLIC "-//W3C//DTD SVG 1.1//EN" "http://www.w3.org/Graphics/SVG/1.1/DTD/svg11.dtd">
<!-- Generated by Microsoft Visio, SVG Export svg_1.svg Container - Organizational Incentives -->
<svg xmlns="http://www.w3.org/2000/svg" xmlns:xlink="http://www.w3.org/1999/xlink" xmlns:ev="http://www.w3.org/2001/xml-events" width="19.2126in" height="16.4764in" viewBox="0 0 1383.31 1186.3" xml:space="preserve" color-interpolation-filters="sRGB" class="st25">
	<style type="text/css">
	<![CDATA[
		.st1 {fill:#114745;stroke:#0d3937;stroke-linecap:round;stroke-linejoin:round;stroke-width:1}
		.st2 {fill:#ffffff;font-family:Calibri;font-size:0.833336em}
		.st3 {font-size:0.599989em}
		.st4 {font-size:0.799995em}
		.st5 {marker-end:url(#mrkr13-34);stroke:#444444;stroke-dasharray:5.25,3.75;stroke-linecap:round;stroke-linejoin:round;stroke-width:0.75}
		.st6 {fill:#444444;fill-opacity:1;stroke:#444444;stroke-opacity:1;stroke-width:0.22935779816514}
		.st7 {fill:#ffffff;stroke:none;stroke-linecap:butt;stroke-width:7.2}
		.st8 {fill:#000000;font-family:Calibri;font-size:0.666664em}
		.st9 {font-size:0.749991em}
		.st10 {fill:#176361;stroke:#145553;stroke-linecap:round;stroke-linejoin:round;stroke-width:1}
		.st11 {fill:#ffffff;stroke:none;stroke-linecap:butt}
		.st12 {fill:none;stroke:none;stroke-linecap:round;stroke-linejoin:round;stroke-width:0.75}
		.st13 {fill:#000000;font-family:Calibri;font-size:1.00001em}
		.st14 {fill:#999999;stroke:#8b8b8b;stroke-linecap:round;stroke-linejoin:round;stroke-width:1}
		.st15 {font-size:1em}
		.st16 {fill:#218e8a;stroke:#1e807c;stroke-linecap:round;stroke-linejoin:round;stroke-width:1}
		.st17 {fill:none;stroke:#444444;stroke-dasharray:7.5,4.5;stroke-linecap:round;stroke-linejoin:round;stroke-width:0.5}
		.st18 {fill:#000000;font-family:Calibri;font-size:0.833336em}
		.st19 {fill:#1e807c;stroke:#3d81c3;stroke-linecap:round;stroke-linejoin:round;stroke-width:0.75}
		.st20 {fill:#218e8a;stroke:none;stroke-linecap:round;stroke-linejoin:round;stroke-width:0.75}
		.st21 {fill:#218e8a;stroke:#1e807c;stroke-linecap:round;stroke-linejoin:round;stroke-width:0.283465}
		.st22 {stroke:#218e8a;stroke-linecap:round;stroke-linejoin:round;stroke-width:1}
		.st23 {fill:#218e8a}
		.st24 {stroke:#1e807c;stroke-linecap:round;stroke-linejoin:round;stroke-width:1}
		.st25 {fill:none;fill-rule:evenodd;font-size:12px;overflow:visible;stroke-linecap:square;stroke-miterlimit:3}
	]]>
	</style>

	<defs id="Markers">
		<g id="lend13">
			<path d="M 3 1 L 0 0 L 3 -1 L 3 1 " style="stroke:none"/>
		</g>
		<marker id="mrkr13-34" class="st6" refX="-13.08" orient="auto" markerUnits="strokeWidth" overflow="visible">
			<use xlink:href="#lend13" transform="scale(-4.36,-4.36) "/>
		</marker>
	</defs>
	<g>
		<title>Container - Organizational Incentives</title>
		<g id="shape2-1" transform="translate(791.132,-1004.78)">
			<title>Person</title>
			<desc>Charity [Person] Organizational member represents social impa...</desc>
			<path d="M37.41 1111.89 L19.84 1111.89 A19.8425 19.8425 -180 0 0 -0 1131.73 L0 1166.46 A19.8425 19.8425 -180 0 0 19.84&#xA;						 1186.3 L86.46 1186.3 A19.8425 19.8425 -180 0 0 106.3 1166.46 L106.3 1131.73 A19.8425 19.8425 -180 0 0 86.46&#xA;						 1111.89 L68.89 1111.89 A26.3622 26.5039 -180 1 0 37.41 1111.89 Z" class="st1"/>
			<text x="38.63" y="1128.55" class="st2">Charity <tspan x="42.89" dy="1.667em" class="st3">[Person]  </tspan><tspan x="14.72" dy="2.312em" class="st4">Organizational member </tspan><tspan x="13.63" dy="1em" class="st4">represents social impact </tspan><tspan x="41.98" dy="1.188em" class="st4">charity</tspan></text>		</g>
		<g id="shape3-8" transform="translate(947.037,-1003.89)">
			<title>Person.3</title>
			<desc>Business [Person] Organizational member represents business l...</desc>
			<path d="M37.41 1111.89 L19.84 1111.89 A19.8425 19.8425 -180 0 0 -0 1131.73 L0 1166.46 A19.8425 19.8425 -180 0 0 19.84&#xA;						 1186.3 L86.46 1186.3 A19.8425 19.8425 -180 0 0 106.3 1166.46 L106.3 1131.73 A19.8425 19.8425 -180 0 0 86.46&#xA;						 1111.89 L68.89 1111.89 A26.3622 26.5039 -180 1 0 37.41 1111.89 Z" class="st1"/>
			<text x="35.67" y="1128.55" class="st2">Business <tspan x="42.89" dy="1.667em" class="st3">[Person]  </tspan><tspan x="14.72" dy="2.312em" class="st4">Organizational member </tspan><tspan x="8.15" dy="1em" class="st4">represents business looking </tspan><tspan x="26.34" dy="1.188em" class="st4">for social impact</tspan></text>		</g>
		<g id="shape4-15" transform="translate(476.663,-1004.78)">
			<title>Person.4</title>
			<desc>Civilian [Member] A non-police officer community member</desc>
			<path d="M37.41 1111.89 L19.84 1111.89 A19.8425 19.8425 -180 0 0 -0 1131.73 L0 1166.46 A19.8425 19.8425 -180 0 0 19.84&#xA;						 1186.3 L86.46 1186.3 A19.8425 19.8425 -180 0 0 106.3 1166.46 L106.3 1131.73 A19.8425 19.8425 -180 0 0 86.46&#xA;						 1111.89 L68.89 1111.89 A26.3622 26.5039 -180 1 0 37.41 1111.89 Z" class="st1"/>
			<text x="38.61" y="1132.55" class="st2">Civilian <tspan x="40.74" dy="1.667em" class="st3">[Member]  </tspan><tspan x="21.22" dy="2.312em" class="st4">A non</tspan><tspan class="st4">-</tspan><tspan class="st4">police officer </tspan><tspan x="19.92" dy="1.188em" class="st4">community member</tspan></text>		</g>
		<g id="shape5-23" transform="translate(645.856,-1004.78)">
			<title>Person.14</title>
			<desc>Officer [Member] Police Officer community member</desc>
			<path d="M37.41 1111.89 L19.84 1111.89 A19.8425 19.8425 -180 0 0 -0 1131.73 L0 1166.46 A19.8425 19.8425 -180 0 0 19.84&#xA;						 1186.3 L86.46 1186.3 A19.8425 19.8425 -180 0 0 106.3 1166.46 L106.3 1131.73 A19.8425 19.8425 -180 0 0 86.46&#xA;						 1111.89 L68.89 1111.89 A26.3622 26.5039 -180 1 0 37.41 1111.89 Z" class="st1"/>
			<text x="39.29" y="1132.55" class="st2">Officer <tspan x="40.74" dy="1.667em" class="st3">[Member]  </tspan><tspan x="12.1" dy="2.312em" class="st4">Police Officer community </tspan><tspan x="39.28" dy="1.188em" class="st4">member</tspan></text>		</g>
		<g id="shape6-29" transform="translate(536.65,-1004.78)">
			<title>Relationship</title>
			<desc>Redeems/Donates [HTTPS]</desc>
			<path d="M-6.95 1186.3 L-7.2 1317.06" class="st5"/>
			<rect x="-37.0473" y="1248.59" width="60.0617" height="15.9999" class="st7"/>
			<text x="-37.05" y="1254.59" class="st8">Redeems/Donates <tspan x="-16.58" dy="1.333em" class="st9">[HTTPS]</tspan></text>		</g>
		<g id="shape7-38" transform="translate(704.464,-1004.78)">
			<title>Relationship.7</title>
			<desc>Donates [HTTPS]</desc>
			<path d="M-6.4 1186.3 L-7.62 1265.32" class="st5"/>
			<rect x="-20.4989" y="1222.72" width="26.9646" height="15.9999" class="st7"/>
			<text x="-20.5" y="1228.72" class="st8">Donates <tspan x="-16.58" dy="1.333em" class="st9">[HTTPS]</tspan></text>		</g>
		<g id="shape8-46" transform="translate(837.435,-1004.78)">
			<title>Relationship.8</title>
			<desc>Publishes Needs [HTTPS]</desc>
			<path d="M6.99 1186.3 L7.16 1260.01" class="st5"/>
			<rect x="-19.3018" y="1220.06" width="52.9173" height="15.9999" class="st7"/>
			<text x="-19.3" y="1226.06" class="st8">Publishes Needs <tspan x="-2.4" dy="1.333em" class="st9">[HTTPS]</tspan></text>		</g>
		<g id="shape9-54" transform="translate(993.294,-1003.89)">
			<title>Relationship.9</title>
			<desc>Manages Storefront [HTTPS]</desc>
			<path d="M7.01 1186.3 L7.15 1260.01" class="st5"/>
			<rect x="-25.3762" y="1220.06" width="65.066" height="15.9999" class="st7"/>
			<text x="-25.38" y="1226.06" class="st8">Manages Storefront <tspan x="-2.4" dy="1.333em" class="st9">[HTTPS]</tspan></text>		</g>
		<g id="shape10-62" transform="translate(79.3701,-600.591)">
			<title>Software System.12</title>
			<desc>AnalyticsReporting [Software System] Interaction and Operatio...</desc>
			<rect x="0" y="1111.89" width="106.299" height="74.4094" class="st10"/>
			<text x="14.92" y="1130.59" class="st2">AnalyticsReporting <tspan x="30.83" dy="1.167em" class="st3">[Software System] </tspan><tspan x="7.96" dy="2.187em" class="st4">Interaction and Operational </tspan><tspan x="6.08" dy="1em" class="st4">data management/analytics/</tspan><tspan x="37.92" dy="1.188em" class="st4">reporting</tspan></text>		</g>
		<g id="shape11-69" transform="translate(1273.46,-591.732)">
			<title>Software System.10</title>
			<desc>MediaPositivity [Software System] Manages Social and Other Me...</desc>
			<rect x="0" y="1111.89" width="106.299" height="74.4094" class="st10"/>
			<text x="21.73" y="1134.59" class="st2">MediaPositivity <tspan x="30.83" dy="1.167em" class="st3">[Software System] </tspan><tspan x="10.66" dy="2.187em" class="st4">Manages Social and Other </tspan><tspan x="22.43" dy="1.188em" class="st4">Media Interactions</tspan></text>		</g>
		<g id="shape12-75" transform="translate(263.622,-694.522)">
			<title>Relationship.12</title>
			<desc>Pushes Data, Generates Reports [mTLS]</desc>
			<path d="M0 1186.3 L-68.95 1216.13" class="st5"/>
			<rect x="-91.1645" y="1195.23" width="104.429" height="15.9999" class="st7"/>
			<text x="-91.16" y="1201.23" class="st8">Pushes Data, Generates Reports <tspan x="-47.29" dy="1.333em" class="st9">[mTLS]</tspan></text>		</g>
		<g id="shape13-83" transform="translate(795.118,-616.535)">
			<title>Relationship.13</title>
			<desc>Generates [Event]</desc>
			<path d="M0 1183.56 L118.49 1181.41 A3 3 0 1 1 124.49 1181.3 L255.8 1178.91 A3 3 0 1 1 261.8 1178.8 L468.54 1175.04" class="st5"/>
			<rect x="222.372" y="1171.14" width="33.6206" height="15.9999" class="st11"/>
			<text x="222.37" y="1177.14" class="st8">Generates <tspan x="230.45" dy="1.333em" class="st9">[Event]</tspan></text>		</g>
		<g id="shape14-91" transform="translate(415.293,-28.3465)">
			<title>Sheet.14</title>
			<desc>[System Context] OperationalIncentives System</desc>
			<rect x="0" y="1133.01" width="274.677" height="53.2913" class="st12"/>
			<text x="21.46" y="1163.25" class="st13">[System Context] OperationalIncentives System</text>		</g>
		<g id="shape15-94" transform="translate(528.679,-221.528)">
			<title>Software System Gray</title>
			<desc>Retail Systems [Software System] External Systems of Business...</desc>
			<rect x="0" y="1111.89" width="106.299" height="74.4094" class="st14"/>
			<text x="23.82" y="1130.59" class="st2">Retail Systems <tspan x="30.83" dy="1.167em" class="st3">[Software System] </tspan><tspan x="21.36" dy="2.187em" class="st4">External Systems of </tspan><tspan x="7.74" dy="1em" class="st4">Businesses looking to spend </tspan><tspan x="13.2" dy="1.188em" class="st4">on positive social impact</tspan></text>		</g>
		<g id="shape16-101" transform="translate(725.399,-581.102)">
			<title>Relationship.16</title>
			<desc>Integrates [technology]</desc>
			<path d="M0 1186.3 L-123.01 1462.5" class="st5"/>
			<rect x="-79.9661" y="1320.92" width="33.0543" height="15.9999" class="st7"/>
			<text x="-79.97" y="1326.92" class="st8">Integrates <tspan x="-78.82" dy="1.333em" class="st9">[technology]</tspan></text>		</g>
		<g id="shape17-109" transform="translate(661.483,-221.528)">
			<title>Software System Gray.17</title>
			<desc>Charity Systems [Software System] External Systems of Chariti...</desc>
			<rect x="0" y="1111.89" width="106.299" height="74.4094" class="st14"/>
			<text x="20.87" y="1134.59" class="st2">Charity Systems <tspan x="30.83" dy="1.167em" class="st3">[Software System] </tspan><tspan x="6.18" dy="2.187em" class="st4">External Systems of Charities </tspan><tspan x="13.64" dy="1.188em" class="st4">Looking for Engagement</tspan></text>		</g>
		<g id="shape18-115" transform="translate(739.14,-581.102)">
			<title>Relationship.18</title>
			<desc>Integrates [technology]</desc>
			<path d="M0 1186.3 L-20.94 1461.68" class="st5"/>
			<rect x="-27.2973" y="1320.89" width="33.0543" height="15.9999" class="st7"/>
			<text x="-27.3" y="1326.89" class="st8">Integrates <tspan x="-26.15" dy="1.333em" class="st9">[technology]</tspan></text>		</g>
		<g id="shape19-123" transform="translate(797.97,-223.299)">
			<title>Software System Gray.19</title>
			<desc>Municipality Systems [Software System] External Systems of Mu...</desc>
			<rect x="0" y="1111.89" width="106.299" height="74.4094" class="st14"/>
			<text x="10.2" y="1130.59" class="st2">Municipality Systems <tspan x="30.83" dy="1.167em" class="st3">[Software System] </tspan><tspan x="21.36" dy="2.187em" class="st4">External Systems of </tspan><tspan x="13.86" dy="1em" class="st4">Municipalities Willing to </tspan><tspan x="8.29" dy="1.188em" class="st4">Reward Positive Interaction</tspan></text>		</g>
		<g id="shape20-130" transform="translate(766.827,-581.102)">
			<title>Relationship.20</title>
			<desc>Integrates [technology]</desc>
			<path d="M0 1186.3 L90.43 1460.38" class="st5"/>
			<rect x="30.2912" y="1319.98" width="33.0543" height="15.9999" class="st7"/>
			<text x="30.29" y="1325.98" class="st8">Integrates <tspan x="31.44" dy="1.333em" class="st9">[technology]</tspan></text>		</g>
		<g id="shape21-138" transform="translate(535.766,-83.3386)">
			<title>Person Gray</title>
			<desc>Business Representative Administers Storefront</desc>
			<path d="M27.43 1131.73 L14.55 1131.73 A14.5512 14.5512 -180 0 0 0 1146.28 L0 1171.75 A14.5512 14.5512 -180 0 0 14.55&#xA;						 1186.3 L63.4 1186.3 A14.5512 14.5512 -180 0 0 77.95 1171.75 L77.95 1146.28 A14.5512 14.5512 -180 0 0 63.4&#xA;						 1131.73 L50.52 1131.73 A19.3323 19.4362 -180 1 0 27.43 1131.73 Z" class="st14"/>
			<text x="21.5" y="1142.48" class="st2">Business <tspan x="8.21" dy="1em" class="st15">Representative  </tspan><tspan x="19.57" dy="2.312em" class="st4">Administers </tspan><tspan x="22.14" dy="1.188em" class="st4">Storefront</tspan></text>		</g>
		<g id="shape22-144" transform="translate(571.401,-172.779)">
			<title>Relationship.22</title>
			<desc>Uses</desc>
			<path d="M5.76 1186.3 L7.88 1147.35" class="st5"/>
			<rect x="-0.668743" y="1157.92" width="15.371" height="7.99997" class="st7"/>
			<text x="-0.67" y="1163.92" class="st8">Uses</text>		</g>
		<g id="shape23-151" transform="translate(675.656,-83.3386)">
			<title>Person Gray.23</title>
			<desc>Charity Representative Publicizes</desc>
			<path d="M27.43 1131.73 L14.55 1131.73 A14.5512 14.5512 -180 0 0 0 1146.28 L0 1171.75 A14.5512 14.5512 -180 0 0 14.55&#xA;						 1186.3 L63.4 1186.3 A14.5512 14.5512 -180 0 0 77.95 1171.75 L77.95 1146.28 A14.5512 14.5512 -180 0 0 63.4&#xA;						 1131.73 L50.52 1131.73 A19.3323 19.4362 -180 1 0 27.43 1131.73 Z" class="st14"/>
			<text x="24.46" y="1146.48" class="st2">Charity <tspan x="8.21" dy="1em" class="st15">Representative  </tspan><tspan x="23.13" dy="2.5em" class="st4">Publicizes</tspan></text>		</g>
		<g id="shape24-156" transform="translate(707.546,-172.932)">
			<title>Relationship.24</title>
			<desc>Uses</desc>
			<path d="M7.09 1186.3 L7.09 1147.51" class="st5"/>
			<rect x="-0.668901" y="1158" width="15.371" height="7.99997" class="st7"/>
			<text x="-0.67" y="1164" class="st8">Uses</text>		</g>
		<g id="shape25-163" transform="translate(812.144,-83.3386)">
			<title>Person Gray.25</title>
			<desc>Municipality Representative Administers Incentives</desc>
			<path d="M27.43 1131.73 L14.55 1131.73 A14.5512 14.5512 -180 0 0 0 1146.28 L0 1171.75 A14.5512 14.5512 -180 0 0 14.55&#xA;						 1186.3 L63.4 1186.3 A14.5512 14.5512 -180 0 0 77.95 1171.75 L77.95 1146.28 A14.5512 14.5512 -180 0 0 63.4&#xA;						 1131.73 L50.52 1131.73 A19.3323 19.4362 -180 1 0 27.43 1131.73 Z" class="st14"/>
			<text x="13.78" y="1142.48" class="st2">Municipality <tspan x="8.21" dy="1em" class="st15">Representative  </tspan><tspan x="19.57" dy="2.312em" class="st4">Administers </tspan><tspan x="22.46" dy="1.188em" class="st4">Incentives</tspan></text>		</g>
		<g id="shape26-169" transform="translate(844.033,-172.932)">
			<title>Relationship.26</title>
			<desc>Uses</desc>
			<path d="M7.09 1186.3 L7.09 1145.74" class="st5"/>
			<rect x="-0.668901" y="1157.11" width="15.371" height="7.99997" class="st7"/>
			<text x="-0.67" y="1163.11" class="st8">Uses</text>		</g>
		<g id="shape27-176" transform="translate(965.25,-112.44)">
			<title>Container.36</title>
			<desc>Notifications Handles Notifications to Community Members</desc>
			<rect x="0" y="1128.81" width="82.1338" height="57.4937" class="st16"/>
			<text x="15.16" y="1140.05" class="st2">Notifications   <tspan x="6.35" dy="2.812em" class="st4">Handles Notifications </tspan><tspan x="17.81" dy="1em" class="st4">to Community </tspan><tspan x="25.41" dy="1.188em" class="st4">Members</tspan></text>		</g>
		<g id="shape28-182" transform="translate(88.97,-373.819)">
			<title>Software System</title>
			<desc>CommunityConnectChange [Software System] System for community...</desc>
			<rect x="0" y="1111.89" width="122.533" height="74.4094" class="st10"/>
			<text x="5.65" y="1134.59" class="st2">CommunityConnectChange <tspan x="38.94" dy="1.167em" class="st3">[Software System] </tspan><tspan x="8.2" dy="2.187em" class="st4">System for community members </tspan><tspan x="29.49" dy="1.188em" class="st4">to interact for good</tspan></text>		</g>
		<g id="shape29-188" transform="translate(211.502,-428.515)">
			<title>Relationship.54</title>
			<desc>PointsAwarded [Event]</desc>
			<path d="M0 1186.3 L255.28 1113.42" class="st5"/>
			<rect x="107.568" y="1140.44" width="49.5541" height="15.9999" class="st7"/>
			<text x="107.57" y="1146.44" class="st8">PointsAwarded <tspan x="123.61" dy="1.333em" class="st9">[Event]</tspan></text>		</g>
		<g id="shape30-196" transform="translate(235.276,-335.906)">
			<title>Software System Boundary</title>
			<desc>name [Software System]</desc>
			<path d="M0 1186.3 L994.96 1186.3 L994.96 586.77 L0 586.77 L0 1186.3 Z" class="st17"/>
			<text x="4" y="1167.8" class="st18">name<tspan x="4" dy="1.917em" class="st3">[Software System]</tspan></text>		</g>
		<g id="group31-200" transform="translate(476.22,-799.016)">
			<title>Web browser</title>
			<g id="group32-201">
				<title>Sheet.32</title>
				<g id="shape33-202">
					<title>Container.7</title>
					<rect x="0" y="1111.89" width="106.299" height="74.4094" rx="1.41732" ry="1.41732" class="st19"/>
				</g>
				<g id="shape34-204" transform="translate(3.47,-66.6142)">
					<title>Sheet.34</title>
					<ellipse cx="3.03014" cy="1183.27" rx="3.03014" ry="3.03014" class="st20"/>
				</g>
				<g id="shape35-206" transform="translate(2.12598,-2.12598)">
					<title>Container</title>
					<rect x="0" y="1123.23" width="102.047" height="63.0709" rx="1.41732" ry="1.41732" class="st16"/>
				</g>
				<g id="shape36-208" transform="translate(10.9476,-66.6142)">
					<title>Sheet.36</title>
					<ellipse cx="3.03014" cy="1183.27" rx="3.03014" ry="3.03014" class="st20"/>
				</g>
				<g id="shape37-210" transform="translate(18.4252,-66.6142)">
					<title>Sheet.37</title>
					<ellipse cx="3.03014" cy="1183.27" rx="3.03014" ry="3.03014" class="st20"/>
				</g>
				<g id="shape38-212" transform="translate(26.1692,-66.6093)">
					<title>Container.14</title>
					<rect x="0" y="1180.23" width="77.8623" height="6.06999" rx="2.83465" ry="2.83465" class="st21"/>
				</g>
			</g>
			<g id="shape39-214">
				<title>Sheet.39</title>
				<desc>HeyBlue! Community Web Application Donation and Redempion</desc>
				<text x="9.91" y="1141.14" class="st2">HeyBlue! Community <tspan x="19.42" dy="1em" class="st15">Web Application  </tspan><tspan x="11.49" dy="2.187em" class="st4">Donation and Redempion</tspan></text>			</g>
		</g>
		<g id="group40-218" transform="translate(639,-841.535)">
			<title>Mobile App</title>
			<g id="shape41-219">
				<title>Container.7</title>
				<rect x="0" y="1111.89" width="114.236" height="74.4094" rx="4.25197" ry="4.25197" class="st19"/>
			</g>
			<g id="shape42-221" transform="translate(-1084.89,1156.45) rotate(-90)">
				<title>Sheet.42</title>
				<path d="M0 1186.3 L14.71 1186.3" class="st22"/>
			</g>
			<g id="shape43-224" transform="translate(2.1009,-33.3413)">
				<title>Sheet.43</title>
				<ellipse cx="3.25639" cy="1183.27" rx="3.25639" ry="3.03014" class="st20"/>
			</g>
			<g id="shape44-226" transform="translate(9.90047,-2.76378)">
				<title>Container</title>
				<rect x="0" y="1117.42" width="94.4353" height="68.8819" rx="1.41732" ry="1.41732" class="st16"/>
			</g>
			<g id="shape45-228">
				<title>Sheet.45</title>
				<desc>HeyBue! Community Mobile Application Donation</desc>
				<text x="39.79" y="1132.95" class="st2">HeyBue! <tspan x="18.04" dy="1em" class="st15">Community Mobile </tspan><tspan x="34.08" dy="1em" class="st15">Application  </tspan><tspan x="42.06" dy="2.187em" class="st4">Donation</tspan></text>			</g>
		</g>
		<g id="shape46-233" transform="translate(578.067,-1011.57)">
			<title>Relationship.46</title>
			<desc>Redeems/Donates [HTTPS]</desc>
			<path d="M0 1186.3 L42.15 1233.73 A3 3 0 0 1 46.14 1238.21 L80.93 1277.36" class="st5"/>
			<rect x="13.7446" y="1227.45" width="60.0617" height="15.9999" class="st7"/>
			<text x="13.74" y="1233.45" class="st8">Redeems/Donates <tspan x="34.21" dy="1.333em" class="st9">[HTTPS]</tspan></text>		</g>
		<g id="shape47-241" transform="translate(655.825,-1007.41)">
			<title>Relationship.47</title>
			<desc>Donates [HTTPS]</desc>
			<path d="M0 1186.3 L-93.14 1312.39" class="st5"/>
			<rect x="-62.9143" y="1245.34" width="26.9646" height="15.9999" class="st7"/>
			<text x="-62.91" y="1251.34" class="st8">Donates <tspan x="-58.99" dy="1.333em" class="st9">[HTTPS]</tspan></text>		</g>
		<g id="group48-249" transform="translate(787.589,-846.85)">
			<title>Web browser.48</title>
			<g id="group49-250">
				<title>Sheet.49</title>
				<g id="shape50-251">
					<title>Container.7</title>
					<rect x="0" y="1111.89" width="114.236" height="74.4094" rx="1.41732" ry="1.41732" class="st19"/>
				</g>
				<g id="shape51-253" transform="translate(3.72909,-66.6142)">
					<title>Sheet.51</title>
					<ellipse cx="3.25639" cy="1183.27" rx="3.25639" ry="3.03014" class="st20"/>
				</g>
				<g id="shape52-255" transform="translate(2.28472,-2.12598)">
					<title>Container</title>
					<rect x="0" y="1123.23" width="109.667" height="63.0709" rx="1.41732" ry="1.41732" class="st16"/>
				</g>
				<g id="shape53-257" transform="translate(11.765,-66.6142)">
					<title>Sheet.53</title>
					<ellipse cx="3.25639" cy="1183.27" rx="3.25639" ry="3.03014" class="st20"/>
				</g>
				<g id="shape54-259" transform="translate(19.8009,-66.6142)">
					<title>Sheet.54</title>
					<ellipse cx="3.25639" cy="1183.27" rx="3.25639" ry="3.03014" class="st20"/>
				</g>
				<g id="shape55-261" transform="translate(28.1231,-66.6093)">
					<title>Container.14</title>
					<rect x="0" y="1180.23" width="83.6761" height="6.06999" rx="2.83465" ry="2.83465" class="st21"/>
				</g>
			</g>
			<g id="shape56-263">
				<title>Sheet.56</title>
				<desc>HeyBlue! Charity Web Application Enables Interaction and Rede...</desc>
				<text x="12.3" y="1137.14" class="st2">HeyBlue! Charity Web <tspan x="34.08" dy="1em" class="st15">Application  </tspan><tspan x="18.74" dy="1.812em" class="st4">Enables Interaction and </tspan><tspan x="38.44" dy="1.375em" class="st4">Redempion</tspan></text>			</g>
		</g>
		<g id="group63-268" transform="translate(943.494,-845.965)">
			<title>Web browser.63</title>
			<g id="group64-269">
				<title>Sheet.64</title>
				<g id="shape65-270">
					<title>Container.7</title>
					<rect x="0" y="1111.89" width="114.236" height="74.4094" rx="1.41732" ry="1.41732" class="st19"/>
				</g>
				<g id="shape66-272" transform="translate(3.72909,-66.6142)">
					<title>Sheet.66</title>
					<ellipse cx="3.25639" cy="1183.27" rx="3.25639" ry="3.03014" class="st20"/>
				</g>
				<g id="shape67-274" transform="translate(2.28472,-2.12598)">
					<title>Container</title>
					<rect x="0" y="1123.23" width="109.667" height="63.0709" rx="1.41732" ry="1.41732" class="st16"/>
				</g>
				<g id="shape68-276" transform="translate(11.765,-66.6142)">
					<title>Sheet.68</title>
					<ellipse cx="3.25639" cy="1183.27" rx="3.25639" ry="3.03014" class="st20"/>
				</g>
				<g id="shape69-278" transform="translate(19.8009,-66.6142)">
					<title>Sheet.69</title>
					<ellipse cx="3.25639" cy="1183.27" rx="3.25639" ry="3.03014" class="st20"/>
				</g>
				<g id="shape70-280" transform="translate(28.1231,-66.6093)">
					<title>Container.14</title>
					<rect x="0" y="1180.23" width="83.6761" height="6.06999" rx="2.83465" ry="2.83465" class="st21"/>
				</g>
			</g>
			<g id="shape71-282">
				<title>Sheet.71</title>
				<desc>HeyBlue! Business Web Application Enables Interaction and Red...</desc>
				<text x="9.34" y="1137.14" class="st2">HeyBlue! Business Web <tspan x="34.08" dy="1em" class="st15">Application  </tspan><tspan x="18.74" dy="1.812em" class="st4">Enables Interaction and </tspan><tspan x="38.44" dy="1.375em" class="st4">Redempion</tspan></text>			</g>
		</g>
		<g id="group72-287" transform="translate(1098.55,-822.047)">
			<title>Web browser.72</title>
			<g id="group73-288">
				<title>Sheet.73</title>
				<g id="shape74-289">
					<title>Container.7</title>
					<rect x="0" y="1111.89" width="114.236" height="74.4094" rx="1.41732" ry="1.41732" class="st19"/>
				</g>
				<g id="shape75-291" transform="translate(3.72909,-66.6142)">
					<title>Sheet.75</title>
					<ellipse cx="3.25639" cy="1183.27" rx="3.25639" ry="3.03014" class="st20"/>
				</g>
				<g id="shape76-293" transform="translate(2.28472,-2.12598)">
					<title>Container</title>
					<rect x="0" y="1123.23" width="109.667" height="63.0709" rx="1.41732" ry="1.41732" class="st16"/>
				</g>
				<g id="shape77-295" transform="translate(11.765,-66.6142)">
					<title>Sheet.77</title>
					<ellipse cx="3.25639" cy="1183.27" rx="3.25639" ry="3.03014" class="st20"/>
				</g>
				<g id="shape78-297" transform="translate(19.8009,-66.6142)">
					<title>Sheet.78</title>
					<ellipse cx="3.25639" cy="1183.27" rx="3.25639" ry="3.03014" class="st20"/>
				</g>
				<g id="shape79-299" transform="translate(28.1231,-66.6093)">
					<title>Container.14</title>
					<rect x="0" y="1180.23" width="83.6761" height="6.06999" rx="2.83465" ry="2.83465" class="st21"/>
				</g>
			</g>
			<g id="shape80-301">
				<title>Sheet.80</title>
				<desc>HeyBlue! Municipality Web Application Enables Interaction and...</desc>
				<text x="12.32" y="1137.14" class="st2">HeyBlue! Municipality <tspan x="23.39" dy="1em" class="st15">Web Application  </tspan><tspan x="18.74" dy="1.812em" class="st4">Enables Interaction and </tspan><tspan x="38.44" dy="1.375em" class="st4">Redempion</tspan></text>			</g>
		</g>
		<g id="shape81-306" transform="translate(1102.94,-1004.78)">
			<title>Person.81</title>
			<desc>Municipality [Person] Organizational member represents munici...</desc>
			<path d="M37.41 1111.89 L19.84 1111.89 A19.8425 19.8425 -180 0 0 -0 1131.73 L0 1166.46 A19.8425 19.8425 -180 0 0 19.84&#xA;						 1186.3 L86.46 1186.3 A19.8425 19.8425 -180 0 0 106.3 1166.46 L106.3 1131.73 A19.8425 19.8425 -180 0 0 86.46&#xA;						 1111.89 L68.89 1111.89 A26.3622 26.5039 -180 1 0 37.41 1111.89 Z" class="st1"/>
			<text x="27.96" y="1128.55" class="st2">Municipality <tspan x="42.89" dy="1.667em" class="st3">[Person]  </tspan><tspan x="14.72" dy="2.312em" class="st4">Organizational member </tspan><tspan x="14.88" dy="1em" class="st4">represents municipality </tspan><tspan x="7.36" dy="1.188em" class="st4">supporting social rdemption</tspan></text>		</g>
		<g id="shape82-313" transform="translate(1162.94,-1004.78)">
			<title>Relationship.82</title>
			<desc>Manages Fine/Penalty Exchange [HTTPS]</desc>
			<path d="M-6.98 1186.3 L-7.18 1284.81" class="st5"/>
			<rect x="-59.5197" y="1232.46" width="105.007" height="15.9999" class="st7"/>
			<text x="-59.52" y="1238.46" class="st8">Manages Fine/Penalty Exchange <tspan x="-16.58" dy="1.333em" class="st9">[HTTPS]</tspan></text>		</g>
		<g id="shape83-321" transform="translate(476.22,-482.06)">
			<title>Container</title>
			<desc>Points Accounting Points Accrual, Compensation, Donation, Red...</desc>
			<rect x="0" y="1111.89" width="106.299" height="74.4094" class="st16"/>
			<text x="16.58" y="1135.59" class="st2">Points Accounting  <tspan x="29.12" dy="1.812em" class="st4">Points Accrual, </tspan><tspan x="11.61" dy="1em" class="st4">Compensation, Donation, </tspan><tspan x="33.13" dy="1.188em" class="st4">Redemption</tspan></text>		</g>
		<g id="shape84-327" transform="translate(1064.41,-683.058)">
			<title>Container.84</title>
			<desc>Organization Registry Manages Details of Organizations. Exten...</desc>
			<rect x="0" y="1111.89" width="106.299" height="74.4094" class="st16"/>
			<text x="9.65" y="1135.59" class="st2">Organization Registry  <tspan x="22.11" dy="1.812em" class="st4">Manages Details of </tspan><tspan x="6.61" dy="1em" class="st4">Organizations. Extensible for </tspan><tspan x="15.54" dy="1.188em" class="st4">new Oganization Types</tspan></text>		</g>
		<g id="shape85-333" transform="translate(476.22,-373.819)">
			<title>Database</title>
			<desc>Points EventStore for Points</desc>
			<path d="M106.28 1121.74 A52.6523 9.84774 -180 0 0 53.7 1111.89 L53.63 1111.89 A53.71 10.0833 -180 0 0 -0 1121.81 L0&#xA;						 1176.22 A53.7099 10.0833 0 0 0 53.63 1186.3 L53.71 1186.3 A52.6523 9.84774 0 0 0 106.29 1176.45 L106.28&#xA;						 1121.74 Z" class="st23"/>
			<path d="M106.28 1121.74 A52.6523 9.84774 -180 0 0 53.7 1111.89 L53.63 1111.89 A53.71 10.0833 -180 0 0 -0 1121.81 L0&#xA;						 1176.22 A53.7099 10.0833 0 0 0 53.63 1186.3 L53.71 1186.3 A52.6523 9.84774 0 0 0 106.29 1176.45 L106.28&#xA;						 1121.74" class="st24"/>
			<path d="M0.08 1121.65 A53.7099 10.0833 -0 0 0 53.79 1131.73" class="st24"/>
			<path d="M106.3 1121.88 A52.6523 9.84774 180 0 1 53.65 1131.73" class="st24"/>
			<text x="40.52" y="1153.52" class="st2">Points  <tspan x="18.65" dy="2em" class="st4">EventStore for Points</tspan></text>		</g>
		<g id="shape86-340" transform="translate(522.283,-482.06)">
			<title>Relationship.86</title>
			<desc>Publish [Events]</desc>
			<path d="M7.09 1186.3 L7.09 1210.32" class="st5"/>
			<rect x="-4.61454" y="1195.22" width="23.5426" height="15.9999" class="st7"/>
			<text x="-4.61" y="1201.22" class="st8">Publish <tspan x="-2.75" dy="1.333em" class="st9">[Events]</tspan></text>		</g>
		<g id="shape87-348" transform="translate(263.622,-680.315)">
			<title>Container.87</title>
			<desc>Cash Accounting Calculation of HeyBlue! earn on point redempt...</desc>
			<rect x="0" y="1111.89" width="106.299" height="74.4094" class="st16"/>
			<text x="19.56" y="1135.59" class="st2">Cash Accounting  <tspan x="6.86" dy="1.812em" class="st4">Calculation of HeyBlue! earn </tspan><tspan x="18.31" dy="1em" class="st4">on point redemption. </tspan><tspan x="10.88" dy="1.188em" class="st4">Accounting, reconciliation</tspan></text>		</g>
		<g id="shape88-354" transform="translate(476.22,-535.139)">
			<title>Relationship.88</title>
			<desc>Pushes Data [mTLS]</desc>
			<path d="M0 1186.3 L-281.15 1102.33" class="st5"/>
			<rect x="-165.227" y="1134.97" width="39.8513" height="15.9999" class="st11"/>
			<text x="-165.23" y="1140.97" class="st8">Pushes Data <tspan x="-153.64" dy="1.333em" class="st9">[mTLS]</tspan></text>		</g>
		<g id="shape89-362" transform="translate(925.585,-473.031)">
			<title>Container.89</title>
			<desc>StoreFront Supports StorFront Configuration/Integration</desc>
			<rect x="0" y="1111.89" width="106.299" height="74.4094" class="st16"/>
			<text x="31.33" y="1139.59" class="st2">StoreFront  <tspan x="22.23" dy="1.812em" class="st4">Supports StorFront </tspan><tspan x="11.26" dy="1.188em" class="st4">Configuration/Integration</tspan></text>		</g>
		<g id="shape90-367" transform="translate(882.136,-755.927)">
			<title>Relationship.90</title>
			<desc>Manage and Browse [Event]</desc>
			<path d="M0 1186.3 L172.57 1212.44" class="st5"/>
			<rect x="57.9031" y="1192.04" width="66.4956" height="15.9999" class="st7"/>
			<text x="57.9" y="1198.04" class="st8">Manage and Browse <tspan x="82.42" dy="1.333em" class="st9">[Event]</tspan></text>		</g>
		<g id="shape91-375" transform="translate(793.412,-731.594)">
			<title>Container.91</title>
			<desc>Gateway Routes Events/Requests</desc>
			<rect x="0" y="1124.19" width="88.7244" height="62.1071" class="st16"/>
			<text x="26.42" y="1149.75" class="st2">Gateway  <tspan x="5.06" dy="2em" class="st4">Routes Events/Requests</tspan></text>		</g>
		<g id="shape92-379" transform="translate(582.52,-823.541)">
			<title>Relationship.92</title>
			<desc>Uses [technology]</desc>
			<path d="M0 1186.3 L201.35 1234.33" class="st5"/>
			<rect x="90.0862" y="1203.39" width="30.7614" height="15.9999" class="st7"/>
			<text x="97.78" y="1209.39" class="st8">Uses <tspan x="90.09" dy="1.333em" class="st9">[technology]</tspan></text>		</g>
		<g id="shape95-387" transform="translate(738.143,-844.299)">
			<title>Relationship.95</title>
			<desc>Uses [technology]</desc>
			<path d="M0 1186.3 L54.15 1230.68" class="st5"/>
			<rect x="15.5351" y="1203.55" width="30.7614" height="15.9999" class="st7"/>
			<text x="23.23" y="1209.55" class="st8">Uses <tspan x="15.54" dy="1.333em" class="st9">[technology]</tspan></text>		</g>
		<g id="shape96-395" transform="translate(848.151,-846.85)">
			<title>Relationship.96</title>
			<desc>Uses [technology]</desc>
			<path d="M-5.57 1186.3 L-8.04 1229.65" class="st5"/>
			<rect x="-22.3973" y="1204.88" width="30.7614" height="15.9999" class="st7"/>
			<text x="-14.7" y="1210.88" class="st8">Uses <tspan x="-22.4" dy="1.333em" class="st9">[technology]</tspan></text>		</g>
		<g id="shape98-403" transform="translate(950.345,-845.965)">
			<title>Relationship.98</title>
			<desc>Uses [technology]</desc>
			<path d="M0 1186.3 L-62.73 1232.73" class="st5"/>
			<rect x="-50.6473" y="1204.49" width="30.7614" height="15.9999" class="st11"/>
			<text x="-42.95" y="1210.49" class="st8">Uses <tspan x="-50.65" dy="1.333em" class="st9">[technology]</tspan></text>		</g>
		<g id="shape99-411" transform="translate(1098.55,-841.894)">
			<title>Relationship.99</title>
			<desc>Uses [technology]</desc>
			<path d="M0 1186.3 L-207.03 1249.21" class="st5"/>
			<rect x="-123.571" y="1211.25" width="30.7614" height="15.9999" class="st11"/>
			<text x="-115.88" y="1217.25" class="st8">Uses <tspan x="-123.57" dy="1.333em" class="st9">[technology]</tspan></text>		</g>
		<g id="shape100-419" transform="translate(688.819,-581.102)">
			<title>Container.100</title>
			<desc>Ecommerce Engine Extensible Interop Engine for Redemption Tra...</desc>
			<rect x="0" y="1111.89" width="106.299" height="74.4094" class="st16"/>
			<text x="14.32" y="1139.59" class="st2">Ecommerce Engine  <tspan x="6.11" dy="1.812em" class="st4">Extensible Interop Engine for </tspan><tspan x="11.66" dy="1.188em" class="st4">Redemption Transactions</tspan></text>		</g>
		<g id="shape101-424" transform="translate(817.162,-731.594)">
			<title>Relationship.101</title>
			<desc>Redemption Workflow [Event]</desc>
			<path d="M0 1186.3 L-45.07 1254.21" class="st5"/>
			<rect x="-62.104" y="1216.38" width="73.8235" height="15.9999" class="st7"/>
			<text x="-62.1" y="1222.38" class="st8">Redemption Workflow <tspan x="-33.93" dy="1.333em" class="st9">[Event]</tspan></text>		</g>
		<g id="shape102-432" transform="translate(855.116,-731.594)">
			<title>Relationship.102</title>
			<desc>Manage and Browse [technology]</desc>
			<path d="M0 1186.3 L98.06 1361.89" class="st5"/>
			<rect x="18.2362" y="1270.35" width="66.4956" height="15.9999" class="st7"/>
			<text x="18.24" y="1276.35" class="st8">Manage and Browse <tspan x="36.1" dy="1.333em" class="st9">[technology]</tspan></text>		</g>
		<g id="shape103-440" transform="translate(795.118,-594.047)">
			<title>Relationship.103</title>
			<desc>Query [technology]</desc>
			<path d="M0 1186.3 L121.54 1241.78" class="st5"/>
			<rect x="49.8846" y="1208.01" width="30.7614" height="15.9999" class="st11"/>
			<text x="55.28" y="1214.01" class="st8">Query <tspan x="49.88" dy="1.333em" class="st9">[technology]</tspan></text>		</g>
		<g id="shape104-448" transform="translate(1003.33,-547.441)">
			<title>Relationship.104</title>
			<desc>Uses [technology]</desc>
			<path d="M0 1186.3 L84.23 1058.87" class="st5"/>
			<rect x="29.3833" y="1110.45" width="30.7614" height="15.9999" class="st11"/>
			<text x="37.08" y="1116.45" class="st8">Uses <tspan x="29.38" dy="1.333em" class="st9">[technology]</tspan></text>		</g>
		<g id="shape105-456" transform="translate(1064.41,-715.813)">
			<title>Relationship.105</title>
			<desc>Pushes Telemetry [mTLS]</desc>
			<path d="M0 1186.3 L-188.54 1202.08 A3 3 -180 0 0 -194.52 1202.58 L-269.9 1208.89 A3 3 -180 1 0 -275.87 1209.4 L-597.1&#xA;						 1236.29 A3 3 -180 1 0 -603.08 1236.79 L-681.38 1243.34 A3 3 -180 1 0 -687.36 1243.84 L-868.96 1259.05" class="st5"/>
			<rect x="-468.253" y="1215.15" width="57.7414" height="15.9999" class="st11"/>
			<text x="-468.25" y="1221.15" class="st8">Pushes Telemetry <tspan x="-447.72" dy="1.333em" class="st9">[mTLS]</tspan></text>		</g>
		<g id="shape106-464" transform="translate(925.585,-518.248)">
			<title>Relationship.106</title>
			<desc>Pushes Telemetry [mTLS]</desc>
			<path d="M0 1186.3 L-142.28 1164.85 A3 3 -180 0 0 -148.21 1163.96 L-186.09 1158.25 A3 3 -180 0 0 -192.02 1157.35 L-210.86&#xA;						 1154.51 A3 3 -180 1 0 -216.79 1153.62 L-298.04 1141.37 A3 3 -180 0 0 -303.97 1140.48 L-421.23 1122.8 A3&#xA;						 3 -180 0 0 -427.16 1121.91 L-468.34 1115.7 A3 3 -180 0 0 -474.28 1114.81 L-730.22 1076.23" class="st5"/>
			<rect x="-398.854" y="1122.6" width="57.7414" height="15.9999" class="st11"/>
			<text x="-398.85" y="1128.6" class="st8">Pushes Telemetry <tspan x="-378.32" dy="1.333em" class="st9">[mTLS]</tspan></text>		</g>
		<g id="shape107-472" transform="translate(688.819,-620.007)">
			<title>Relationship.107</title>
			<desc>Pushes Telemetry [mTLS]</desc>
			<path d="M0 1186.3 L-204.19 1179.77 A3 3 -180 0 0 -210.19 1179.58 L-273.98 1177.54 A3 3 -180 0 0 -279.98 1177.35 L-493.34&#xA;						 1170.52" class="st5"/>
			<rect x="-280.458" y="1170.32" width="57.7414" height="15.9999" class="st7"/>
			<text x="-280.46" y="1176.32" class="st8">Pushes Telemetry <tspan x="-259.93" dy="1.333em" class="st9">[mTLS]</tspan></text>		</g>
		<g id="shape108-480" transform="translate(688.819,-593.547)">
			<title>Relationship.108</title>
			<desc>PointsConsumed [technology]</desc>
			<path d="M0 1186.3 L-97.41 1231.68" class="st5"/>
			<rect x="-80.5183" y="1203.12" width="54.7924" height="15.9999" class="st7"/>
			<text x="-80.52" y="1209.12" class="st8">PointsConsumed <tspan x="-68.5" dy="1.333em" class="st9">[technology]</tspan></text>		</g>
		<g id="shape109-488" transform="translate(356.668,-680.315)">
			<title>Relationship.109</title>
			<desc>GetSnapshot [technology]</desc>
			<path d="M0 1186.3 L125.63 1303.45" class="st5"/>
			<rect x="45.5279" y="1240.17" width="41.851" height="15.9999" class="st11"/>
			<text x="45.53" y="1246.17" class="st8">GetSnapshot <tspan x="51.07" dy="1.333em" class="st9">[technology]</tspan></text>		</g>
		<g id="shape110-496" transform="translate(263.622,-1004.78)">
			<title>Person.110</title>
			<desc>HeyBlue! Staff [Person] Cash and Points Reconciliation</desc>
			<path d="M37.41 1111.89 L19.84 1111.89 A19.8425 19.8425 -180 0 0 -0 1131.73 L0 1166.46 A19.8425 19.8425 -180 0 0 19.84&#xA;						 1186.3 L86.46 1186.3 A19.8425 19.8425 -180 0 0 106.3 1166.46 L106.3 1131.73 A19.8425 19.8425 -180 0 0 86.46&#xA;						 1111.89 L68.89 1111.89 A26.3622 26.5039 -180 1 0 37.41 1111.89 Z" class="st1"/>
			<text x="24.12" y="1132.55" class="st2">HeyBlue! Staff <tspan x="42.89" dy="1.667em" class="st3">[Person]  </tspan><tspan x="27.41" dy="2.312em" class="st4">Cash and Points </tspan><tspan x="30.26" dy="1.188em" class="st4">Reconciliation</tspan></text>		</g>
		<g id="group111-502" transform="translate(318.791,-830.75)">
			<title>Web browser.111</title>
			<g id="group112-503">
				<title>Sheet.112</title>
				<g id="shape113-504">
					<title>Container.7</title>
					<rect x="0" y="1111.89" width="114.236" height="74.4094" rx="1.41732" ry="1.41732" class="st19"/>
				</g>
				<g id="shape114-506" transform="translate(3.72909,-66.6142)">
					<title>Sheet.114</title>
					<ellipse cx="3.25639" cy="1183.27" rx="3.25639" ry="3.03014" class="st20"/>
				</g>
				<g id="shape115-508" transform="translate(2.28472,-2.12598)">
					<title>Container</title>
					<rect x="0" y="1123.23" width="109.667" height="63.0709" rx="1.41732" ry="1.41732" class="st16"/>
				</g>
				<g id="shape116-510" transform="translate(11.765,-66.6142)">
					<title>Sheet.116</title>
					<ellipse cx="3.25639" cy="1183.27" rx="3.25639" ry="3.03014" class="st20"/>
				</g>
				<g id="shape117-512" transform="translate(19.8009,-66.6142)">
					<title>Sheet.117</title>
					<ellipse cx="3.25639" cy="1183.27" rx="3.25639" ry="3.03014" class="st20"/>
				</g>
				<g id="shape118-514" transform="translate(28.1231,-66.6093)">
					<title>Container.14</title>
					<rect x="0" y="1180.23" width="83.6761" height="6.06999" rx="2.83465" ry="2.83465" class="st21"/>
				</g>
			</g>
			<g id="shape119-516">
				<title>Sheet.119</title>
				<desc>HeyBlue! Accounting Application Supports Cash and Points Reco...</desc>
				<text x="14.7" y="1137.14" class="st2">HeyBlue! Accounting <tspan x="34.08" dy="1em" class="st15">Application  </tspan><tspan x="15.92" dy="1.812em" class="st4">Supports Cash and Points </tspan><tspan x="34.22" dy="1.375em" class="st4">Reconciliation</tspan></text>			</g>
		</g>
		<g id="shape120-521" transform="translate(339.193,-1004.78)">
			<title>Relationship.120</title>
			<desc>Uses [technology]</desc>
			<path d="M0 1186.3 L33.18 1276.71" class="st5"/>
			<rect x="2.96806" y="1228.09" width="30.7614" height="15.9999" class="st7"/>
			<text x="10.66" y="1234.09" class="st8">Uses <tspan x="2.97" dy="1.333em" class="st9">[technology]</tspan></text>		</g>
		<g id="shape121-529" transform="translate(375.757,-830.75)">
			<title>Relationship.121</title>
			<desc>Uses [technology]</desc>
			<path d="M0 1186.3 L-35.07 1253.62" class="st5"/>
			<rect x="-35.1214" y="1216.35" width="30.7614" height="15.9999" class="st7"/>
			<text x="-27.43" y="1222.35" class="st8">Uses <tspan x="-35.12" dy="1.333em" class="st9">[technology]</tspan></text>		</g>
		<g id="shape122-537" transform="translate(389.931,-832.876)">
			<title>Relationship.122</title>
			<desc>Points Compensation (Credits/Debits) [technology]</desc>
			<path d="M0 1186.3 L118.91 1453.74" class="st5"/>
			<rect x="0.240513" y="1316.48" width="122.549" height="15.9999" class="st7"/>
			<text x="0.24" y="1322.48" class="st8">Points Compensation (Credits/Debits) <tspan x="46.13" dy="1.333em" class="st9">[technology]</tspan></text>		</g>
	</g>
</svg>
