<?xml version="1.0" encoding="UTF-8" standalone="no"?>
<!DOCTYPE svg PUBLIC "-//W3C//DTD SVG 1.1//EN" "http://www.w3.org/Graphics/SVG/1.1/DTD/svg11.dtd">
<!-- Generated by Microsoft Visio, SVG Export svg_1.svg Domain -->
<svg xmlns="http://www.w3.org/2000/svg" xmlns:xlink="http://www.w3.org/1999/xlink" xmlns:ev="http://www.w3.org/2001/xml-events" width="16.5in" height="8.75984in" viewBox="0 0 1188 630.709" xml:space="preserve" color-interpolation-filters="sRGB" class="st20">
	<style type="text/css">
	<![CDATA[
		.st1 {stroke:#000000;stroke-linecap:round;stroke-linejoin:round;stroke-width:0.75}
		.st2 {visibility:visible}
		.st3 {fill:#000000;fill-opacity:0.4;filter:url(#filter_2.6666667461395);stroke:#000000;stroke-linecap:round;stroke-linejoin:round;stroke-opacity:0.4}
		.st4 {fill:#f8cecc;stroke:#b85450;stroke-linecap:round;stroke-linejoin:round;stroke-width:0.75}
		.st5 {fill:#000000;font-family:Calibri;font-size:0.916534em}
		.st6 {fill:#ffe6cc;stroke:#d79b00;stroke-linecap:round;stroke-linejoin:round;stroke-width:0.75}
		.st7 {fill:#000000;font-family:Calibri;font-size:0.687401em}
		.st8 {font-size:1em}
		.st9 {fill:#dae8fc;stroke:#6c8ebf;stroke-linecap:round;stroke-linejoin:round;stroke-width:0.75}
		.st10 {fill:#d5e8d4;stroke:#82b366;stroke-linecap:round;stroke-linejoin:round;stroke-width:0.75}
		.st11 {fill:#e1d5e7;stroke:#9673a6;stroke-linecap:round;stroke-linejoin:round;stroke-width:0.75}
		.st12 {fill:none;filter:url(#filter_2.6666667461395);stroke:none;stroke-linecap:round;stroke-linejoin:round}
		.st13 {fill:#000000;filter:url(#filter_2.6666667461395);font-family:Calibri;font-size:1.43209em;opacity:0.4}
		.st14 {fill:none;stroke:none;stroke-linecap:round;stroke-linejoin:round;stroke-width:0.75}
		.st15 {fill:#000000;font-family:Calibri;font-size:1.43209em}
		.st16 {fill:#f5f5f5;stroke:#666666;stroke-linecap:round;stroke-linejoin:round;stroke-width:0.75}
		.st17 {fill:#333333;font-family:Calibri;font-size:0.687401em}
		.st18 {fill:#fff2cc;stroke:#d6b656;stroke-linecap:round;stroke-linejoin:round;stroke-width:0.75}
		.st19 {fill:#ffffff;stroke:#000000;stroke-linecap:round;stroke-linejoin:round;stroke-width:0.75}
		.st20 {fill:none;fill-rule:evenodd;font-size:12px;overflow:visible;stroke-linecap:square;stroke-miterlimit:3}
	]]>
	</style>

	<defs id="Filters">
		<filter id="filter_2.6666667461395">
			<feGaussianBlur stdDeviation="2.6666667461395"/>
		</filter>
	</defs>
	<g>
		<title>Domain Model</title>
		<g id="shape1-1" transform="translate(269.291,-244.488)">
			<title>Dynamic connector.1</title>
			<path d="M56.69 575.08 L28.35 575.08 L28.35 630.71 L0 630.71" class="st1"/>
		</g>
		<g id="shape4-4" transform="translate(404.752,-184.252)">
			<title>Dynamic connector.4</title>
			<path d="M0 554.37 L0.04 602.36 L169.26 602.36 L169.26 630.71 L311 630.71" class="st1"/>
		</g>
		<g id="shape6-7" transform="translate(432.283,-290.551)">
			<title>Dynamic connector.6</title>
			<path d="M0 621.14 L14.17 621.14 L14.17 630.71 L28.35 630.71" class="st1"/>
		</g>
		<g id="shape8-10" transform="translate(416.88,-328.805)">
			<title>Dynamic connector.8</title>
			<path d="M0 630.71 L72.1 630.69 L72.1 452.82" class="st1"/>
		</g>
		<g id="shape2-13" transform="translate(325.984,-259.37)">
			<title>Shape2</title>
			<desc>Interactions</desc>
			<g id="shadow2-14" transform="matrix(1,0,0,1,2.12132,2.12132)" class="st2">
				<ellipse cx="53.1496" cy="589.961" rx="53.1496" ry="40.748" class="st3"/>
			</g>
			<ellipse cx="53.1496" cy="589.961" rx="53.1496" ry="40.748" class="st4"/>
			<text x="26.38" y="593.26" class="st5">Interactions</text>		</g>
		<g id="shape10-19" transform="translate(155.906,-244.488)">
			<title>Dynamic connector.10</title>
			<path d="M0 574.02 L14.17 574.02 L14.17 630.71 L28.35 630.71" class="st1"/>
		</g>
		<g id="shape11-22" transform="translate(70.8661,-272.835)">
			<title>Shape11</title>
			<desc>Presence and Location</desc>
			<g id="shadow11-23" transform="matrix(1,0,0,1,2.12132,2.12132)" class="st2">
				<ellipse cx="42.5197" cy="602.362" rx="42.5197" ry="28.3465" class="st3"/>
			</g>
			<ellipse cx="42.5197" cy="602.362" rx="42.5197" ry="28.3465" class="st6"/>
			<text x="20.03" y="599.89" class="st7">Presence and <tspan x="28.22" dy="1.2em" class="st8">Location</tspan></text>		</g>
		<g id="shape12-29" transform="translate(113.386,-162.992)">
			<title>Dynamic connector.12</title>
			<path d="M0 520.87 L0 630.71 L226.77 630.71" class="st1"/>
		</g>
		<g id="shape3-32" transform="translate(184.252,-216.142)">
			<title>Shape3</title>
			<desc>Proximity</desc>
			<g id="shadow3-33" transform="matrix(1,0,0,1,2.12132,2.12132)" class="st2">
				<ellipse cx="42.5197" cy="602.362" rx="42.5197" ry="28.3465" class="st3"/>
			</g>
			<ellipse cx="42.5197" cy="602.362" rx="42.5197" ry="28.3465" class="st6"/>
			<text x="26.55" y="604.84" class="st7">Proximity</text>		</g>
		<g id="shape16-38" transform="translate(418.11,-304.724)">
			<title>Dynamic connector.16</title>
			<path d="M0 503.15 L56.69 503.15 L56.69 538.58 L226.77 538.58 L226.77 630.71" class="st1"/>
		</g>
		<g id="shape18-41" transform="translate(375.591,-340.866)">
			<title>Dynamic connector.18</title>
			<path d="M0 567.64 L0 599.17 L3.54 599.17 L3.54 630.71" class="st1"/>
		</g>
		<g id="shape19-44" transform="translate(418.11,-425.197)">
			<title>Dynamic connector.19</title>
			<path d="M0 623.62 L99.21 623.62 L99.21 630.71 L198.43 630.71" class="st1"/>
		</g>
		<g id="shape21-47" transform="translate(405.657,-318.898)">
			<title>Dynamic connector.21</title>
			<path d="M0 537.37 L97.49 537.38 L97.49 630.71" class="st1"/>
		</g>
		<g id="shape22-50" transform="translate(375.591,-460.63)">
			<title>Dynamic connector.22</title>
			<path d="M0 630.71 L0 602.36 L389.76 602.36" class="st1"/>
		</g>
		<g id="shape24-53" transform="translate(375.591,-460.63)">
			<title>Dynamic connector.24</title>
			<path d="M0 630.71 L0 556.3 L70.87 556.3" class="st1"/>
		</g>
		<g id="shape15-56" transform="translate(333.071,-403.937)">
			<title>Shape15</title>
			<desc>Civilian Profile</desc>
			<g id="shadow15-57" transform="matrix(1,0,0,1,2.12132,2.12132)" class="st2">
				<ellipse cx="42.5197" cy="602.362" rx="42.5197" ry="28.3465" class="st3"/>
			</g>
			<ellipse cx="42.5197" cy="602.362" rx="42.5197" ry="28.3465" class="st6"/>
			<text x="18.65" y="604.84" class="st7">Civilian Profile</text>		</g>
		<g id="shape25-62" transform="translate(659.055,-350.787)">
			<title>Dynamic connector.25</title>
			<path d="M127.56 630.71 L127.56 607.68 L0 607.68 L0 584.65" class="st1"/>
		</g>
		<g id="shape27-65" transform="translate(816.68,-240.945)">
			<title>Dynamic connector.27</title>
			<path d="M0 569.26 L83.32 569.27 L83.32 630.71" class="st1"/>
		</g>
		<g id="shape29-68" transform="translate(786.614,-350.787)">
			<title>Dynamic connector.29</title>
			<path d="M0 630.71 L0 575.79 L21.26 575.79 L21.26 520.87" class="st1"/>
		</g>
		<g id="shape26-71" transform="translate(744.094,-294.094)">
			<title>Shape26</title>
			<desc>Charity Relations</desc>
			<g id="shadow26-72" transform="matrix(1,0,0,1,2.12132,2.12132)" class="st2">
				<ellipse cx="42.5197" cy="602.362" rx="42.5197" ry="28.3465" class="st3"/>
			</g>
			<ellipse cx="42.5197" cy="602.362" rx="42.5197" ry="28.3465" class="st9"/>
			<text x="30.55" y="599.89" class="st7">Charity <tspan x="27.02" dy="1.2em" class="st8">Relations</tspan></text>		</g>
		<g id="shape30-78" transform="translate(701.575,-425.197)">
			<title>Dynamic connector.30</title>
			<path d="M0 630.71 L31.89 630.71 L31.89 566.93 L63.78 566.93" class="st1"/>
		</g>
		<g id="shape31-81" transform="translate(659.055,-212.598)">
			<title>Dynamic connector.31</title>
			<path d="M0 446.46 L0 538.58 L99.21 538.58 L99.21 630.71" class="st1"/>
		</g>
		<g id="shape32-84" transform="translate(701.575,-240.945)">
			<title>Dynamic connector.32</title>
			<path d="M0 446.46 L198.43 446.46 L198.43 630.71" class="st1"/>
		</g>
		<g id="shape20-87" transform="translate(616.535,-396.85)">
			<title>Shape20</title>
			<desc>Redemption</desc>
			<g id="shadow20-88" transform="matrix(1,0,0,1,2.12132,2.12132)" class="st2">
				<ellipse cx="42.5197" cy="602.362" rx="42.5197" ry="28.3465" class="st3"/>
			</g>
			<ellipse cx="42.5197" cy="602.362" rx="42.5197" ry="28.3465" class="st10"/>
			<text x="21.88" y="604.84" class="st7">Redemption</text>		</g>
		<g id="shape33-93" transform="translate(687.402,-276.378)">
			<title>Dynamic connector.33</title>
			<path d="M0 630.71 L28.35 630.71 L28.35 584.65 L56.69 584.65" class="st1"/>
		</g>
		<g id="shape34-96" transform="translate(674.948,-204.296)">
			<title>Dynamic connector.34</title>
			<path d="M0 578.67 L53.27 578.68 L53.25 630.71" class="st1"/>
		</g>
		<g id="shape17-99" transform="translate(602.362,-248.031)">
			<title>Shape17</title>
			<desc>Donation</desc>
			<g id="shadow17-100" transform="matrix(1,0,0,1,2.12132,2.12132)" class="st2">
				<ellipse cx="42.5197" cy="602.362" rx="42.5197" ry="28.3465" class="st3"/>
			</g>
			<ellipse cx="42.5197" cy="602.362" rx="42.5197" ry="28.3465" class="st9"/>
			<text x="26.99" y="604.84" class="st7">Donation</text>		</g>
		<g id="shape35-105" transform="translate(900,-240.945)">
			<title>Dynamic connector.35</title>
			<path d="M14.17 510.24 L14.17 570.47 L0 570.47 L0 630.71" class="st1"/>
		</g>
		<g id="shape36-108" transform="translate(871.654,-361.417)">
			<title>Shape36</title>
			<desc>Social Impact Relations</desc>
			<g id="shadow36-109" transform="matrix(1,0,0,1,2.12132,2.12132)" class="st2">
				<ellipse cx="42.5197" cy="602.362" rx="42.5197" ry="28.3465" class="st3"/>
			</g>
			<ellipse cx="42.5197" cy="602.362" rx="42.5197" ry="28.3465" class="st10"/>
			<text x="20.3" y="599.89" class="st7">Social Impact <tspan x="27.02" dy="1.2em" class="st8">Relations</tspan></text>		</g>
		<g id="shape37-115" transform="translate(850.394,-418.11)">
			<title>Dynamic connector.37</title>
			<path d="M0 559.84 L63.78 559.84 L63.78 630.71" class="st1"/>
		</g>
		<g id="shape38-118" transform="translate(800.787,-184.252)">
			<title>Dynamic connector.38</title>
			<path d="M37.15 346.03 L56.69 346.04 L56.69 630.71 L0 630.71" class="st1"/>
		</g>
		<g id="shape23-121" transform="translate(765.354,-460.63)">
			<title>Shape23</title>
			<desc>Store Front</desc>
			<g id="shadow23-122" transform="matrix(1,0,0,1,2.12132,2.12132)" class="st2">
				<ellipse cx="42.5197" cy="602.362" rx="42.5197" ry="28.3465" class="st3"/>
			</g>
			<ellipse cx="42.5197" cy="602.362" rx="42.5197" ry="28.3465" class="st10"/>
			<text x="23.59" y="604.84" class="st7">Store Front</text>		</g>
		<g id="shape39-127" transform="translate(800.787,-184.252)">
			<title>Dynamic connector.39</title>
			<path d="M0 630.71 L28.35 630.71 L28.35 602.36 L56.69 602.36" class="st1"/>
		</g>
		<g id="shape40-130" transform="translate(666.142,-120.472)">
			<title>Dynamic connector.40</title>
			<path d="M62.06 586.97 L0 586.98 L0 630.71" class="st1"/>
		</g>
		<g id="shape42-133" transform="translate(788.334,-63.7795)">
			<title>Dynamic connector.42</title>
			<path d="M0 530.28 L65.6 530.29 L65.6 630.71 L118.75 630.71" class="st1"/>
		</g>
		<g id="shape44-136" transform="translate(758.268,-85.0394)">
			<title>Dynamic connector.44</title>
			<path d="M0 559.84 L0 595.28 L42.52 595.28 L42.52 630.71" class="st1"/>
		</g>
		<g id="shape5-139" transform="translate(715.748,-155.906)">
			<title>Shape5</title>
			<desc>Temporal and Geographic Event History</desc>
			<g id="shadow5-140" transform="matrix(1,0,0,1,2.12132,2.12132)" class="st2">
				<ellipse cx="42.5197" cy="602.362" rx="42.5197" ry="28.3465" class="st3"/>
			</g>
			<ellipse cx="42.5197" cy="602.362" rx="42.5197" ry="28.3465" class="st11"/>
			<text x="19.22" y="594.94" class="st7">Temporal and <tspan x="12.9" dy="1.2em" class="st8">Geographic Event </tspan><tspan x="30.53" dy="1.2em" class="st8">History</tspan></text>		</g>
		<g id="shape46-147" transform="translate(425.197,-162.992)">
			<title>Dynamic connector.46</title>
			<path d="M0 630.71 L219.69 630.71 L219.69 545.67" class="st1"/>
		</g>
		<g id="shape47-150" transform="translate(379.134,-191.339)">
			<title>Dynamic connector.47</title>
			<path d="M3.54 630.71 L3.54 596.69 L0 596.69 L0 562.68" class="st1"/>
		</g>
		<g id="shape48-153" transform="translate(412.743,-183.036)">
			<title>Dynamic connector.48</title>
			<path d="M0 630.71 L90.41 630.7 L90.41 551.54" class="st1"/>
		</g>
		<g id="shape13-156" transform="translate(340.157,-134.646)">
			<title>Shape13</title>
			<desc>Officer Profile</desc>
			<g id="shadow13-157" transform="matrix(1,0,0,1,2.12132,2.12132)" class="st2">
				<ellipse cx="42.5197" cy="602.362" rx="42.5197" ry="28.3465" class="st3"/>
			</g>
			<ellipse cx="42.5197" cy="602.362" rx="42.5197" ry="28.3465" class="st6"/>
			<text x="19.21" y="604.84" class="st7">Officer Profile</text>		</g>
		<g id="shape49-162" transform="translate(942.52,-198.425)">
			<title>Dynamic connector.49</title>
			<path d="M0 616.54 L70.87 616.54 L70.87 630.71" class="st1"/>
		</g>
		<g id="shape51-165" transform="translate(892.913,-63.7795)">
			<title>Dynamic connector.51</title>
			<path d="M7.09 510.24 L7.09 556.3 L0 556.3 L0 630.71 L14.17 630.71" class="st1"/>
		</g>
		<g id="shape28-168" transform="translate(857.48,-184.252)">
			<title>Shape28</title>
			<desc>Reporting</desc>
			<g id="shadow28-169" transform="matrix(1,0,0,1,2.12132,2.12132)" class="st2">
				<ellipse cx="42.5197" cy="602.362" rx="42.5197" ry="28.3465" class="st3"/>
			</g>
			<ellipse cx="42.5197" cy="602.362" rx="42.5197" ry="28.3465" class="st11"/>
			<text x="20.51" y="605.66" class="st5">Reporting</text>		</g>
		<g id="shape52-174" transform="translate(696.208,-56.6929)">
			<title>Dynamic connector.52</title>
			<path d="M0 615.32 L37.26 615.33 L37.26 630.71 L62.06 630.71" class="st1"/>
		</g>
		<g id="shape41-177" transform="translate(623.622,-63.7795)">
			<title>Shape41</title>
			<desc>Analytics</desc>
			<g id="shadow41-178" transform="matrix(1,0,0,1,2.12132,2.12132)" class="st2">
				<ellipse cx="42.5197" cy="602.362" rx="42.5197" ry="28.3465" class="st3"/>
			</g>
			<ellipse cx="42.5197" cy="602.362" rx="42.5197" ry="28.3465" class="st11"/>
			<text x="22.48" y="605.66" class="st5">Analytics</text>		</g>
		<g id="shape45-183" transform="translate(758.268,-28.3465)">
			<title>Shape45</title>
			<desc>AI/ML</desc>
			<g id="shadow45-184" transform="matrix(1,0,0,1,2.12132,2.12132)" class="st2">
				<ellipse cx="42.5197" cy="602.362" rx="42.5197" ry="28.3465" class="st3"/>
			</g>
			<ellipse cx="42.5197" cy="602.362" rx="42.5197" ry="28.3465" class="st11"/>
			<text x="28.81" y="605.66" class="st5">AI/ML</text>		</g>
		<g id="shape53-189" transform="translate(56.6929,-524.409)">
			<title>Shape53</title>
			<desc>Hey Blue! Domain Model</desc>
			<g id="shadow53-190" transform="matrix(1,0,0,1,2.12132,2.12132)" class="st2">
				<rect x="0" y="609.449" width="219.685" height="21.2598" class="st12"/>
				<text x="22.34" y="625.23" class="st13">Hey Blue! Domain Model</text>			</g>
			<rect x="0" y="609.449" width="219.685" height="21.2598" class="st14"/>
			<text x="22.34" y="625.23" class="st15">Hey Blue! Domain Model</text>		</g>
		<g id="shape54-197" transform="translate(545.669,-276.378)">
			<title>Dynamic connector.54</title>
			<path d="M0 616.54 L28.35 616.54 L28.35 630.71 L56.69 630.71" class="st1"/>
		</g>
		<g id="shape55-200" transform="translate(545.669,-290.551)">
			<title>Dynamic connector.55</title>
			<path d="M0 630.71 L0 609.45 L63.78 609.45 L63.78 524.41 L93.32 524.41" class="st1"/>
		</g>
		<g id="shape7-203" transform="translate(460.63,-262.205)">
			<title>Shape7</title>
			<desc>Points and  Rewards</desc>
			<g id="shadow7-204" transform="matrix(1,0,0,1,2.12132,2.12132)" class="st2">
				<ellipse cx="42.5197" cy="602.362" rx="42.5197" ry="28.3465" class="st3"/>
			</g>
			<ellipse cx="42.5197" cy="602.362" rx="42.5197" ry="28.3465" class="st6"/>
			<text x="23.93" y="599.89" class="st7">Points and <tspan x="28.09" dy="1.2em" class="st8">Rewards</tspan></text>		</g>
		<g id="shape56-210" transform="translate(651.969,-453.543)">
			<title>Dynamic connector.56</title>
			<path d="M0 566.93 L0 598.82 L7.09 598.82 L7.09 630.71" class="st1"/>
		</g>
		<g id="shape57-213" transform="translate(609.449,-517.323)">
			<title>Shape57</title>
			<desc>3rd Party  Integration</desc>
			<g id="shadow57-214" transform="matrix(1,0,0,1,2.12132,2.12132)" class="st2">
				<ellipse cx="42.5197" cy="602.362" rx="42.5197" ry="28.3465" class="st3"/>
			</g>
			<ellipse cx="42.5197" cy="602.362" rx="42.5197" ry="28.3465" class="st16"/>
			<text x="26.17" y="599.89" class="st17">3rd Party <tspan x="23.85" dy="1.2em" class="st8">Integration</tspan></text>		</g>
		<g id="shape58-220" transform="translate(992.126,-63.7795)">
			<title>Dynamic connector.58</title>
			<path d="M21.26 552.76 L21.26 630.71 L0 630.71" class="st1"/>
		</g>
		<g id="shape50-223" transform="translate(970.866,-141.732)">
			<title>Shape50</title>
			<desc>Accounting</desc>
			<g id="shadow50-224" transform="matrix(1,0,0,1,2.12132,2.12132)" class="st2">
				<ellipse cx="42.5197" cy="602.362" rx="42.5197" ry="28.3465" class="st3"/>
			</g>
			<ellipse cx="42.5197" cy="602.362" rx="42.5197" ry="28.3465" class="st18"/>
			<text x="23.7" y="604.84" class="st7">Accounting</text>		</g>
		<g id="shape43-229" transform="translate(907.087,-35.4331)">
			<title>Shape43</title>
			<desc>Community Budgets</desc>
			<g id="shadow43-230" transform="matrix(1,0,0,1,2.12132,2.12132)" class="st2">
				<ellipse cx="42.5197" cy="602.362" rx="42.5197" ry="28.3465" class="st3"/>
			</g>
			<ellipse cx="42.5197" cy="602.362" rx="42.5197" ry="28.3465" class="st18"/>
			<text x="23.03" y="599.89" class="st7">Community <tspan x="28.95" dy="1.2em" class="st8">Budgets</tspan></text>		</g>
		<g id="shape59-236" transform="translate(63.7795,-432.283)">
			<title>Shape59</title>
			<desc>Notifications</desc>
			<g id="shadow59-237" transform="matrix(1,0,0,1,2.12132,2.12132)" class="st2">
				<ellipse cx="42.5197" cy="602.362" rx="42.5197" ry="28.3465" class="st3"/>
			</g>
			<ellipse cx="42.5197" cy="602.362" rx="42.5197" ry="28.3465" class="st19"/>
			<text x="21.15" y="604.84" class="st7">Notifications</text>		</g>
		<g id="shape60-242" transform="translate(425.197,-63.7795)">
			<title>Dynamic connector.60</title>
			<path d="M0 630.71 L0 552.76 L145.28 552.76 L145.28 510.24 L290.55 510.24" class="st1"/>
		</g>
		<g id="shape61-245" transform="translate(340.157,-35.4331)">
			<title>Shape61</title>
			<desc>Observability</desc>
			<g id="shadow61-246" transform="matrix(1,0,0,1,2.12132,2.12132)" class="st2">
				<ellipse cx="42.5197" cy="602.362" rx="42.5197" ry="28.3465" class="st3"/>
			</g>
			<ellipse cx="42.5197" cy="602.362" rx="42.5197" ry="28.3465" class="st19"/>
			<text x="20.43" y="604.84" class="st7">Observability</text>		</g>
		<g id="shape62-251" transform="translate(552.756,-113.386)">
			<title>Dynamic connector.62</title>
			<path d="M0 630.71 L35.43 630.71 L35.43 574.02 L162.99 574.02 L162.99 559.84" class="st1"/>
		</g>
		<g id="shape64-254" transform="translate(595.276,-85.0394)">
			<title>Dynamic connector.64</title>
			<path d="M0 630.71 L14.17 630.71 L14.17 623.62 L28.35 623.62" class="st1"/>
		</g>
		<g id="shape65-257" transform="translate(552.756,-36.6378)">
			<title>Dynamic connector.65</title>
			<path d="M0 610.65 L0 630.71 L217.97 630.7" class="st1"/>
		</g>
		<g id="shape63-260" transform="translate(510.236,-56.6929)">
			<title>Shape63</title>
			<desc>Data Service</desc>
			<g id="shadow63-261" transform="matrix(1,0,0,1,2.12132,2.12132)" class="st2">
				<ellipse cx="42.5197" cy="602.362" rx="42.5197" ry="28.3465" class="st3"/>
			</g>
			<ellipse cx="42.5197" cy="602.362" rx="42.5197" ry="28.3465" class="st11"/>
			<text x="34.65" y="599.89" class="st7">Data <tspan x="30.53" dy="1.2em" class="st8">Service</tspan></text>		</g>
		<g id="shape66-267" transform="translate(255.118,-386.22)">
			<title>Dynamic connector.66</title>
			<path d="M0 630.71 L0 616.54 L60.24 616.54 L60.24 627.17 L90.43 627.17 L90.41 604.69" class="st1"/>
		</g>
		<g id="shape68-270" transform="translate(255.118,-183.036)">
			<title>Dynamic connector.68</title>
			<path d="M0 484.22 L0 553.31 L97.51 553.31 L97.49 630.71" class="st1"/>
		</g>
		<g id="shape67-273" transform="translate(212.598,-329.528)">
			<title>Shape67</title>
			<desc>Events</desc>
			<g id="shadow67-274" transform="matrix(1,0,0,1,2.12132,2.12132)" class="st2">
				<ellipse cx="42.5197" cy="602.362" rx="42.5197" ry="28.3465" class="st3"/>
			</g>
			<ellipse cx="42.5197" cy="602.362" rx="42.5197" ry="28.3465" class="st6"/>
			<text x="31.43" y="604.84" class="st7">Events</text>		</g>
		<g id="shape69-279" transform="translate(531.496,-535.039)">
			<title>Dynamic connector.69</title>
			<path d="M0 630.71 L38.98 630.71 L38.98 620.08 L77.95 620.08" class="st1"/>
		</g>
		<g id="shape9-282" transform="translate(446.457,-506.693)">
			<title>Shape9</title>
			<desc>Social Media</desc>
			<g id="shadow9-283" transform="matrix(1,0,0,1,2.12132,2.12132)" class="st2">
				<ellipse cx="42.5197" cy="602.362" rx="42.5197" ry="28.3465" class="st3"/>
			</g>
			<ellipse cx="42.5197" cy="602.362" rx="42.5197" ry="28.3465" class="st6"/>
			<text x="21.24" y="604.84" class="st7">Social Media</text>		</g>
	</g>
</svg>
