<?xml version="1.0" encoding="UTF-8" standalone="no"?>
<!DOCTYPE svg PUBLIC "-//W3C//DTD SVG 1.1//EN" "http://www.w3.org/Graphics/SVG/1.1/DTD/svg11.dtd">
<!-- Generated by Microsoft Visio, SVG Export svg_1.svg Containers - Analytics and Reporting -->
<svg xmlns="http://www.w3.org/2000/svg" xmlns:xlink="http://www.w3.org/1999/xlink" xmlns:ev="http://www.w3.org/2001/xml-events" width="15.4409in" height="10.5512in" viewBox="0 0 1111.75 759.685" xml:space="preserve" color-interpolation-filters="sRGB" class="st23">
	<style type="text/css">
	<![CDATA[
		.st1 {fill:none;stroke:#444444;stroke-dasharray:7.5,4.5;stroke-linecap:round;stroke-linejoin:round;stroke-width:0.5}
		.st2 {fill:#000000;font-family:Calibri;font-size:0.833336em}
		.st3 {font-size:0.599989em}
		.st4 {fill:#218e8a}
		.st5 {stroke:#1e807c;stroke-linecap:round;stroke-linejoin:round;stroke-width:1}
		.st6 {fill:#ffffff;font-family:Calibri;font-size:0.833336em}
		.st7 {font-size:1em}
		.st8 {fill:#218e8a;stroke:#1e807c;stroke-linecap:round;stroke-linejoin:round;stroke-width:1}
		.st9 {font-size:0.799995em}
		.st10 {marker-end:url(#mrkr13-40);stroke:#444444;stroke-dasharray:5.25,3.75;stroke-linecap:round;stroke-linejoin:round;stroke-width:0.75}
		.st11 {fill:#444444;fill-opacity:1;stroke:#444444;stroke-opacity:1;stroke-width:0.22935779816514}
		.st12 {fill:#ffffff;stroke:none;stroke-linecap:butt}
		.st13 {fill:#000000;font-family:Calibri;font-size:0.666664em}
		.st14 {font-size:0.749991em}
		.st15 {fill:#ffffff;stroke:none;stroke-linecap:butt;stroke-width:7.2}
		.st16 {fill:#1e807c;stroke:#3d81c3;stroke-linecap:round;stroke-linejoin:round;stroke-width:0.75}
		.st17 {fill:#218e8a;stroke:none;stroke-linecap:round;stroke-linejoin:round;stroke-width:0.75}
		.st18 {fill:#218e8a;stroke:#1e807c;stroke-linecap:round;stroke-linejoin:round;stroke-width:0.283465}
		.st19 {fill:#114745;stroke:#0d3937;stroke-linecap:round;stroke-linejoin:round;stroke-width:1}
		.st20 {fill:#176361;stroke:#145553;stroke-linecap:round;stroke-linejoin:round;stroke-width:1}
		.st21 {fill:none;stroke:none;stroke-linecap:round;stroke-linejoin:round;stroke-width:0.75}
		.st22 {fill:#000000;font-family:Calibri;font-size:1.00001em}
		.st23 {fill:none;fill-rule:evenodd;font-size:12px;overflow:visible;stroke-linecap:square;stroke-miterlimit:3}
	]]>
	</style>

	<defs id="Markers">
		<g id="lend13">
			<path d="M 3 1 L 0 0 L 3 -1 L 3 1 " style="stroke:none"/>
		</g>
		<marker id="mrkr13-40" class="st11" refX="-13.08" orient="auto" markerUnits="strokeWidth" overflow="visible">
			<use xlink:href="#lend13" transform="scale(-4.36,-4.36) "/>
		</marker>
	</defs>
	<g>
		<title>Containers - Analytics and Reporting</title>
		<g id="shape1-1" transform="translate(257.244,-103.183)">
			<title>Container Boundary</title>
			<desc>Analystics and Reporting [Software System]</desc>
			<path d="M0 759.69 L621.5 759.69 L621.5 353.2 L0 353.2 L0 759.69 Z" class="st1"/>
			<text x="4" y="741.19" class="st2">Analystics and Reporting<tspan x="4" dy="1.917em" class="st3">[Software System]</tspan></text>		</g>
		<g id="shape2-5" transform="translate(434.551,-128.086)">
			<title>Database</title>
			<desc>Operational Telemetry Storage [S3 Compatible] Logs, Metric, T...</desc>
			<path d="M98.63 699.77 A48.8613 9.13871 -180 0 0 49.84 690.63 L49.77 690.63 A49.8429 9.35731 -180 0 0 -0 699.84 L0 750.33&#xA;						 A49.8428 9.35729 -180 0 0 49.77 759.69 L49.84 759.69 A48.8613 9.13871 -180 0 0 98.63 750.55 L98.63 699.77&#xA;						 Z" class="st4"/>
			<path d="M98.63 699.77 A48.8613 9.13871 -180 0 0 49.84 690.63 L49.77 690.63 A49.8429 9.35731 -180 0 0 -0 699.84 L0 750.33&#xA;						 A49.8428 9.35729 -180 0 0 49.77 759.69 L49.84 759.69 A48.8613 9.13871 -180 0 0 98.63 750.55 L98.63 699.77" class="st5"/>
			<path d="M0.07 699.69 A49.8428 9.35729 -180 0 0 49.92 709.05" class="st5"/>
			<path d="M98.65 699.91 A48.8613 9.13871 0 0 1 49.78 709.05" class="st5"/>
			<text x="25.13" y="715.87" class="st6">Operational <tspan x="11.88" dy="1em" class="st7">Telemetry Storage </tspan><tspan x="29.86" dy="1.167em" class="st3">[S3 Compatible]  </tspan><tspan x="8.94" dy="1.5em" class="st7">Logs, Metric, Traces </tspan><tspan x="17.08" dy="1em" class="st7">and Event Store</tspan></text>		</g>
		<g id="shape3-15" transform="translate(278.362,-156.333)">
			<title>Container</title>
			<desc>Telemetry Gateway [OpenTelemetry] Ingress for all Telemetry S...</desc>
			<rect x="0" y="692.717" width="95.6693" height="66.9685" class="st8"/>
			<text x="8.04" y="713.7" class="st6">Telemetry Gateway <tspan x="26.93" dy="1.167em" class="st3">[OpenTelemetry]  </tspan><tspan x="8.56" dy="1.687em" class="st9">Ingress for all Telemetry </tspan><tspan x="36.7" dy="1.188em" class="st9">Signals</tspan></text>		</g>
		<g id="shape5-21" transform="translate(763.631,-129.028)">
			<title>Database.5</title>
			<desc>Analytics [Container: technology] description of database</desc>
			<path d="M95.65 701.58 A47.387 8.86297 -180 0 0 48.33 692.72 L48.26 692.72 A48.339 9.07498 -180 0 0 0 701.64 L0 750.61&#xA;						 A48.3389 9.07496 -180 0 0 48.27 759.69 L48.34 759.69 A47.387 8.86297 -180 0 0 95.66 750.82 L95.65 701.58&#xA;						 Z" class="st4"/>
			<path d="M95.65 701.58 A47.387 8.86297 -180 0 0 48.33 692.72 L48.26 692.72 A48.339 9.07498 -180 0 0 0 701.64 L0 750.61&#xA;						 A48.3389 9.07496 -180 0 0 48.27 759.69 L48.34 759.69 A47.387 8.86297 -180 0 0 95.66 750.82 L95.65 701.58" class="st5"/>
			<path d="M0.07 701.5 A48.3389 9.07496 -180 0 0 48.41 710.57" class="st5"/>
			<path d="M95.67 701.71 A47.387 8.86297 0 0 1 48.28 710.57" class="st5"/>
			<text x="29.62" y="722.63" class="st6">Analytics <tspan x="18.97" dy="1.167em" class="st3">[Container: technology]  </tspan><tspan x="25.37" dy="1.687em" class="st9">description of </tspan><tspan x="32.99" dy="1.188em" class="st9">database</tspan></text>		</g>
		<g id="shape6-30" transform="translate(430.724,-230.743)">
			<title>Container.6</title>
			<desc>Analytics Engine description of container</desc>
			<rect x="0" y="697.876" width="88.2992" height="61.8094" class="st8"/>
			<text x="11.12" y="719.28" class="st6">Analytics Engine  <tspan x="21.69" dy="1.812em" class="st9">description of </tspan><tspan x="28.59" dy="1.188em" class="st9">container</tspan></text>		</g>
		<g id="shape7-35" transform="translate(374.032,-183.429)">
			<title>Relationship</title>
			<desc>Stores [mTLS]</desc>
			<path d="M0 761.55 L50.85 770.32" class="st10"/>
			<rect x="20.0369" y="758.703" width="20.4725" height="15.9999" class="st12"/>
			<text x="20.04" y="764.7" class="st13">Stores <tspan x="21.94" dy="1.333em" class="st14">[mTLS]</tspan></text>		</g>
		<g id="shape8-44" transform="translate(700.016,-155.426)">
			<title>Relationship.8</title>
			<desc>Loads [mTLS]</desc>
			<path d="M0 752.6 L53.8 752.6" class="st10"/>
			<rect x="22.4358" y="744.529" width="18.746" height="15.9999" class="st15"/>
			<text x="22.44" y="750.53" class="st13">Loads <tspan x="23.47" dy="1.333em" class="st14">[mTLS]</tspan></text>		</g>
		<g id="shape9-52" transform="translate(601.37,-127.987)">
			<title>Container.9</title>
			<desc>ETL [Container: technology] Extracts real-time data, transfor...</desc>
			<rect x="0" y="690.633" width="98.6457" height="69.052" class="st8"/>
			<text x="42.34" y="708.66" class="st6">ETL <tspan x="20.46" dy="1.167em" class="st3">[Container: technology]  </tspan><tspan x="11.42" dy="1.687em" class="st9">Extracts real</tspan><tspan class="st9">-</tspan><tspan class="st9">time data, </tspan><tspan x="10.63" dy="1em" class="st9">transforms and loads to </tspan><tspan x="25.17" dy="1.188em" class="st9">Analytics Store</tspan></text>		</g>
		<g id="shape10-61" transform="translate(601.37,-155.475)">
			<title>Relationship.10</title>
			<desc>Extracts [mTLS]</desc>
			<path d="M0 752.62 L-58.38 752.58" class="st10"/>
			<rect x="-47.027" y="744.669" width="25.8629" height="15.9999" class="st12"/>
			<text x="-47.03" y="750.67" class="st13">Extracts <tspan x="-42.43" dy="1.333em" class="st14">[mTLS]</tspan></text>		</g>
		<g id="shape11-69" transform="translate(472.124,-230.743)">
			<title>Relationship.11</title>
			<desc>Queries [mTLS]</desc>
			<path d="M5.56 759.69 L7.73 783.55" class="st10"/>
			<rect x="-5.49367" y="768.495" width="25.3004" height="15.9999" class="st12"/>
			<text x="-5.49" y="774.49" class="st13">Queries <tspan x="-1.18" dy="1.333em" class="st14">[mTLS]</tspan></text>		</g>
		<g id="shape12-77" transform="translate(519.024,-248.644)">
			<title>Relationship.12</title>
			<desc>Queries Data, Stores Analysis Results [mTLS]</desc>
			<path d="M0 759.69 L235.2 828.96" class="st10"/>
			<rect x="62.4365" y="787.641" width="119.784" height="15.9999" class="st12"/>
			<text x="62.44" y="793.64" class="st13">Queries Data, Stores Analysis Results <tspan x="113.99" dy="1.333em" class="st14">[mTLS]</tspan></text>		</g>
		<g id="group13-85" transform="translate(274.247,-248.813)">
			<title>Web browser</title>
			<g id="group14-86">
				<title>Sheet.14</title>
				<g id="shape15-87">
					<title>Container.7</title>
					<rect x="0" y="692.717" width="95.6693" height="66.9685" rx="1.41732" ry="1.41732" class="st16"/>
				</g>
				<g id="shape16-89" transform="translate(3.123,-59.9528)">
					<title>Sheet.16</title>
					<ellipse cx="2.72712" cy="756.958" rx="2.72712" ry="2.72713" class="st17"/>
				</g>
				<g id="shape17-91" transform="translate(1.91339,-1.91339)">
					<title>Container</title>
					<rect x="0" y="702.921" width="91.8425" height="56.7638" rx="1.41732" ry="1.41732" class="st8"/>
				</g>
				<g id="shape18-93" transform="translate(9.85284,-59.9528)">
					<title>Sheet.18</title>
					<ellipse cx="2.72712" cy="756.958" rx="2.72712" ry="2.72713" class="st17"/>
				</g>
				<g id="shape19-95" transform="translate(16.5827,-59.9528)">
					<title>Sheet.19</title>
					<ellipse cx="2.72712" cy="756.958" rx="2.72712" ry="2.72713" class="st17"/>
				</g>
				<g id="shape20-97" transform="translate(23.5522,-59.9484)">
					<title>Container.14</title>
					<rect x="0" y="754.222" width="70.0761" height="5.463" rx="2.7315" ry="2.7315" class="st18"/>
				</g>
			</g>
			<g id="shape21-99">
				<title>Sheet.21</title>
				<desc>SRE Interface [Container: technology] Dashboards, Alerting, S...</desc>
				<text x="20.94" y="715.89" class="st6">SRE Interface <tspan x="18.97" dy="1.167em" class="st3">[Container: technology]  </tspan><tspan x="12.84" dy="1.687em" class="st9">Dashboards, Alerting, </tspan><tspan x="20.52" dy="1.375em" class="st9">Systems Analysis</tspan></text>			</g>
		</g>
		<g id="shape22-104" transform="translate(763.631,-244.916)">
			<title>Container.22</title>
			<desc>Reporting Engine [Container: technology] Schedules, Generates...</desc>
			<rect x="0" y="692.717" width="95.6693" height="66.9685" class="st8"/>
			<text x="13.01" y="713.7" class="st6">Reporting Engine <tspan x="18.97" dy="1.167em" class="st3">[Container: technology]  </tspan><tspan x="5.8" dy="1.687em" class="st9">Schedules, Generates and </tspan><tspan x="18.93" dy="1.188em" class="st9">Publishes Reports</tspan></text>		</g>
		<g id="shape23-110" transform="translate(763.631,-277.019)">
			<title>Relationship.23</title>
			<desc>Uses [mTLS]</desc>
			<path d="M0 760.68 L-234.81 772.37" class="st10"/>
			<rect x="-130.643" y="758.842" width="16.6756" height="15.9999" class="st12"/>
			<text x="-129.99" y="764.84" class="st13">Uses <tspan x="-130.64" dy="1.333em" class="st14">[mTLS]</tspan></text>		</g>
		<g id="shape24-118" transform="translate(172.368,-571.181)">
			<title>Person</title>
			<desc>SRE [HeyBlue! Staff] Systems Reliability Engineer</desc>
			<path d="M34.11 691.84 L18.09 691.84 A18.0923 18.0923 -180 0 0 0 709.93 L0 741.59 A18.0923 18.0923 -180 0 0 18.09 759.69&#xA;						 L78.83 759.69 A18.0923 18.0923 -180 0 0 96.92 741.59 L96.92 709.93 A18.0923 18.0923 -180 0 0 78.83 691.84&#xA;						 L62.81 691.84 A24.0369 24.1661 -180 1 0 34.11 691.84 Z" class="st19"/>
			<text x="41.01" y="709.22" class="st6">SRE <tspan x="29.21" dy="1.667em" class="st3">[HeyBlue! Staff]  </tspan><tspan x="18.34" dy="2.312em" class="st9">Systems Reliability </tspan><tspan x="34.13" dy="1.188em" class="st9">Engineer</tspan></text>		</g>
		<g id="shape25-124" transform="translate(237.196,-571.181)">
			<title>Relationship.25</title>
			<desc>Uses [HTTPS]</desc>
			<path d="M0 759.69 L72.28 1005.67" class="st10"/>
			<rect x="28.0312" y="879.37" width="19.1217" height="15.9999" class="st15"/>
			<text x="29.91" y="885.37" class="st13">Uses <tspan x="28.03" dy="1.333em" class="st14">[HTTPS]</tspan></text>		</g>
		<g id="shape26-132" transform="translate(376.735,-571.181)">
			<title>Person.26</title>
			<desc>Data Staff [HeyBlue! Staff] Data Analysts, Scientists and Eng...</desc>
			<path d="M34.11 691.84 L18.09 691.84 A18.0923 18.0923 -180 0 0 0 709.93 L0 741.59 A18.0923 18.0923 -180 0 0 18.09 759.69&#xA;						 L78.83 759.69 A18.0923 18.0923 -180 0 0 96.92 741.59 L96.92 709.93 A18.0923 18.0923 -180 0 0 78.83 691.84&#xA;						 L62.81 691.84 A24.0369 24.1661 -180 1 0 34.11 691.84 Z" class="st19"/>
			<text x="28.37" y="709.22" class="st6">Data Staff <tspan x="29.21" dy="1.667em" class="st3">[HeyBlue! Staff]  </tspan><tspan x="9.23" dy="2.312em" class="st9">Data Analysts, Scientists </tspan><tspan x="25.54" dy="1.188em" class="st9">and Engineers</tspan></text>		</g>
		<g id="shape27-138" transform="translate(625.912,-571.181)">
			<title>Person.27</title>
			<desc>Admin [HeyBlue! Staff] Generates, Publishes, Schedules Reports</desc>
			<path d="M34.11 691.84 L18.09 691.84 A18.0923 18.0923 -180 0 0 0 709.93 L0 741.59 A18.0923 18.0923 -180 0 0 18.09 759.69&#xA;						 L78.83 759.69 A18.0923 18.0923 -180 0 0 96.92 741.59 L96.92 709.93 A18.0923 18.0923 -180 0 0 78.83 691.84&#xA;						 L62.81 691.84 A24.0369 24.1661 -180 1 0 34.11 691.84 Z" class="st19"/>
			<text x="35.17" y="711.22" class="st6">Admin <tspan x="29.21" dy="1.167em" class="st3">[HeyBlue! Staff]  </tspan><tspan x="13.42" dy="2.187em" class="st9">Generates, Publishes, </tspan><tspan x="18.59" dy="1.188em" class="st9">Schedules Reports</tspan></text>		</g>
		<g id="shape29-144" transform="translate(369.916,-278.81)">
			<title>Relationship.29</title>
			<desc>Uses [mTLS]</desc>
			<path d="M0 762.66 L51.09 769.57" class="st10"/>
			<rect x="22.077" y="758.703" width="16.6756" height="15.9999" class="st15"/>
			<text x="22.73" y="764.7" class="st13">Uses <tspan x="22.08" dy="1.333em" class="st14">[mTLS]</tspan></text>		</g>
		<g id="shape30-152" transform="translate(487.417,-330.844)">
			<title>Container.30</title>
			<desc>Model Engine [Container: technology] Create, Train, Test, Dep...</desc>
			<rect x="0" y="704.771" width="78.4488" height="54.9142" class="st8"/>
			<text x="11.24" y="719.73" class="st6">Model Engine <tspan x="10.36" dy="1.167em" class="st3">[Container: technology]  </tspan><tspan x="8.54" dy="1.687em" class="st9">Create, Train, Test, </tspan><tspan x="27.83" dy="1.188em" class="st9">Deploy</tspan></text>		</g>
		<g id="group31-158" transform="translate(312.241,-398.832)">
			<title>Web browser.31</title>
			<g id="group32-159">
				<title>Sheet.32</title>
				<g id="shape33-160">
					<title>Container.7</title>
					<rect x="0" y="685.276" width="106.299" height="74.4094" rx="1.41732" ry="1.41732" class="st16"/>
				</g>
				<g id="shape34-162" transform="translate(3.47,-66.6142)">
					<title>Sheet.34</title>
					<ellipse cx="3.03014" cy="756.655" rx="3.03014" ry="3.03014" class="st17"/>
				</g>
				<g id="shape35-164" transform="translate(2.12598,-2.12598)">
					<title>Container</title>
					<rect x="0" y="696.614" width="102.047" height="63.0709" rx="1.41732" ry="1.41732" class="st8"/>
				</g>
				<g id="shape36-166" transform="translate(10.9476,-66.6142)">
					<title>Sheet.36</title>
					<ellipse cx="3.03014" cy="756.655" rx="3.03014" ry="3.03014" class="st17"/>
				</g>
				<g id="shape37-168" transform="translate(18.4252,-66.6142)">
					<title>Sheet.37</title>
					<ellipse cx="3.03014" cy="756.655" rx="3.03014" ry="3.03014" class="st17"/>
				</g>
				<g id="shape38-170" transform="translate(26.1692,-66.6093)">
					<title>Container.14</title>
					<rect x="0" y="753.615" width="77.8623" height="6.06999" rx="2.83465" ry="2.83465" class="st18"/>
				</g>
			</g>
			<g id="shape39-172">
				<title>Sheet.39</title>
				<desc>Ad-Hoc Analysis and Management [Container: technology] Manage...</desc>
				<text x="11.94" y="707.52" class="st6">Ad-Hoc Analysis and <tspan x="25.83" dy="1em" class="st7">Management </tspan><tspan x="24.29" dy="1.167em" class="st3">[Container: technology]  </tspan><tspan x="12.03" dy="1.687em" class="st9">Manage operational data </tspan><tspan x="14.87" dy="1.375em" class="st9">and run ad</tspan><tspan class="st9">-</tspan><tspan class="st9">hoc analysis</tspan></text>			</g>
		</g>
		<g id="shape40-180" transform="translate(259.191,-573.042)">
			<title>Relationship.40</title>
			<desc>Uses [technology]</desc>
			<path d="M0 759.69 L67.05 853.79" class="st10"/>
			<rect x="21.0517" y="802.696" width="30.7614" height="15.9999" class="st12"/>
			<text x="28.75" y="808.7" class="st13">Uses <tspan x="21.05" dy="1.333em" class="st14">[technology]</tspan></text>		</g>
		<g id="shape41-188" transform="translate(407.742,-571.181)">
			<title>Relationship.41</title>
			<desc>Uses [technology]</desc>
			<path d="M0 759.69 L-27.76 848.26" class="st10"/>
			<rect x="-30.6605" y="800.678" width="30.7614" height="15.9999" class="st15"/>
			<text x="-22.97" y="806.68" class="st13">Uses <tspan x="-30.66" dy="1.333em" class="st14">[technology]</tspan></text>		</g>
		<g id="shape42-196" transform="translate(385.6,-400.958)">
			<title>Relationship.42</title>
			<desc>Uses [technology]</desc>
			<path d="M0 759.69 L64.18 859.83" class="st10"/>
			<rect x="19.4147" y="805.853" width="30.7614" height="15.9999" class="st15"/>
			<text x="27.11" y="811.85" class="st13">Uses <tspan x="19.41" dy="1.333em" class="st14">[technology]</tspan></text>		</g>
		<g id="shape43-204" transform="translate(511.936,-330.844)">
			<title>Relationship.43</title>
			<desc>Uses [technology]</desc>
			<path d="M0 759.69 L-15.88 789.33" class="st10"/>
			<rect x="-25.5739" y="770.865" width="30.7614" height="15.9999" class="st15"/>
			<text x="-17.88" y="776.87" class="st13">Uses <tspan x="-25.57" dy="1.333em" class="st14">[technology]</tspan></text>		</g>
		<g id="shape44-212" transform="translate(631.139,-327.397)">
			<title>Database.44</title>
			<desc>Model Storage [Container: technology] Storage of ML Models</desc>
			<path d="M88.28 706.06 A43.7365 8.18019 -180 0 0 44.61 697.88 L44.55 697.88 A44.6151 8.37587 -180 0 0 0 706.12 L0 751.31&#xA;						 A44.615 8.37585 -180 0 0 44.55 759.69 L44.62 759.69 A43.7365 8.18019 -180 0 0 88.29 751.5 L88.28 706.06&#xA;						 Z" class="st4"/>
			<path d="M88.28 706.06 A43.7365 8.18019 -180 0 0 44.61 697.88 L44.55 697.88 A44.6151 8.37587 -180 0 0 0 706.12 L0 751.31&#xA;						 A44.615 8.37585 -180 0 0 44.55 759.69 L44.62 759.69 A43.7365 8.18019 -180 0 0 88.29 751.5 L88.28 706.06" class="st5"/>
			<path d="M0.06 705.98 A44.615 8.37585 -180 0 0 44.68 714.36" class="st5"/>
			<path d="M88.3 706.18 A43.7365 8.18019 0 0 1 44.56 714.36" class="st5"/>
			<text x="14.26" y="728.52" class="st6">Model Storage <tspan x="15.29" dy="1.167em" class="st3">[Container: technology]  </tspan><tspan x="8.43" dy="1.875em" class="st9">Storage of ML Models</tspan></text>		</g>
		<g id="shape46-220" transform="translate(770.639,-571.181)">
			<title>Person.46</title>
			<desc>Management [HeyBlue! Staff] Organizational and Operational Ma...</desc>
			<path d="M34.11 691.84 L18.09 691.84 A18.0923 18.0923 -180 0 0 0 709.93 L0 741.59 A18.0923 18.0923 -180 0 0 18.09 759.69&#xA;						 L78.83 759.69 A18.0923 18.0923 -180 0 0 96.92 741.59 L96.92 709.93 A18.0923 18.0923 -180 0 0 78.83 691.84&#xA;						 L62.81 691.84 A24.0369 24.1661 -180 1 0 34.11 691.84 Z" class="st19"/>
			<text x="21.14" y="711.22" class="st6">Management <tspan x="29.21" dy="1.167em" class="st3">[HeyBlue! Staff]  </tspan><tspan x="17.78" dy="2.187em" class="st9">Organizational and </tspan><tspan x="6.35" dy="1.188em" class="st9">Operational Management</tspan></text>		</g>
		<g id="shape47-226" transform="translate(923.549,-571.181)">
			<title>Person.47</title>
			<desc>Media Relations [HeyBlue! Staff] Drives Positive Data-Driven ...</desc>
			<path d="M34.11 691.84 L18.09 691.84 A18.0923 18.0923 -180 0 0 0 709.93 L0 741.59 A18.0923 18.0923 -180 0 0 18.09 759.69&#xA;						 L78.83 759.69 A18.0923 18.0923 -180 0 0 96.92 741.59 L96.92 709.93 A18.0923 18.0923 -180 0 0 78.83 691.84&#xA;						 L62.81 691.84 A24.0369 24.1661 -180 1 0 34.11 691.84 Z" class="st19"/>
			<text x="15.61" y="711.22" class="st6">Media Relations <tspan x="29.21" dy="1.167em" class="st3">[HeyBlue! Staff]  </tspan><tspan x="4.28" dy="2.187em" class="st9">Drives Positive Data</tspan><tspan class="st9">-</tspan><tspan class="st9">Driven </tspan><tspan x="19.3" dy="1.188em" class="st9">Media Interaction </tspan></text>		</g>
		<g id="group48-234" transform="translate(756.709,-406.136)">
			<title>Web browser.48</title>
			<g id="group49-235">
				<title>Sheet.49</title>
				<g id="shape50-236">
					<title>Container.7</title>
					<rect x="0" y="685.276" width="106.299" height="74.4094" rx="1.41732" ry="1.41732" class="st16"/>
				</g>
				<g id="shape51-238" transform="translate(3.47,-66.6142)">
					<title>Sheet.51</title>
					<ellipse cx="3.03014" cy="756.655" rx="3.03014" ry="3.03014" class="st17"/>
				</g>
				<g id="shape52-240" transform="translate(2.12598,-2.12598)">
					<title>Container</title>
					<rect x="0" y="696.614" width="102.047" height="63.0709" rx="1.41732" ry="1.41732" class="st8"/>
				</g>
				<g id="shape53-242" transform="translate(10.9476,-66.6142)">
					<title>Sheet.53</title>
					<ellipse cx="3.03014" cy="756.655" rx="3.03014" ry="3.03014" class="st17"/>
				</g>
				<g id="shape54-244" transform="translate(18.4252,-66.6142)">
					<title>Sheet.54</title>
					<ellipse cx="3.03014" cy="756.655" rx="3.03014" ry="3.03014" class="st17"/>
				</g>
				<g id="shape55-246" transform="translate(26.1692,-66.6093)">
					<title>Container.14</title>
					<rect x="0" y="753.615" width="77.8623" height="6.06999" rx="2.83465" ry="2.83465" class="st18"/>
				</g>
			</g>
			<g id="shape56-248">
				<title>Sheet.56</title>
				<desc>Reports Interface [Container: technology] Supports Reading, P...</desc>
				<text x="17.86" y="708.52" class="st6">Reports Interface <tspan x="24.29" dy="1.167em" class="st3">[Container: technology]  </tspan><tspan x="23.61" dy="1.687em" class="st9">Supports Reading, </tspan><tspan x="9.39" dy="1em" class="st9">Publishing, Generating and </tspan><tspan x="35.51" dy="1.375em" class="st9">Scheduling</tspan></text>			</g>
		</g>
		<g id="shape57-254" transform="translate(803.593,-406.136)">
			<title>Relationship.57</title>
			<desc>Uses [technology]</desc>
			<path d="M6.63 759.69 L7.45 844.13" class="st10"/>
			<rect x="-8.22389" y="798.813" width="30.7614" height="15.9999" class="st15"/>
			<text x="-0.53" y="804.81" class="st13">Uses <tspan x="-8.22" dy="1.333em" class="st14">[technology]</tspan></text>		</g>
		<g id="shape58-262" transform="translate(713.726,-573.569)">
			<title>Relationship.58</title>
			<desc>Generate, Publish, Schedule [HTTPS]</desc>
			<path d="M0 759.69 L62.84 844.82" class="st10"/>
			<rect x="-11.162" y="798.157" width="91.1082" height="15.9999" class="st15"/>
			<text x="-11.16" y="804.16" class="st13">Generate, Publish, Schedule <tspan x="24.83" dy="1.333em" class="st14">[HTTPS]</tspan></text>		</g>
		<g id="shape60-270" transform="translate(821.1,-571.181)">
			<title>Relationship.60</title>
			<desc>Read [HTTPS]</desc>
			<path d="M-4.8 759.69 L-8.88 840.52" class="st10"/>
			<rect x="-16.5775" y="797.008" width="19.1217" height="15.9999" class="st12"/>
			<text x="-15.2" y="803.01" class="st13">Read <tspan x="-16.58" dy="1.333em" class="st14">[HTTPS]</tspan></text>		</g>
		<g id="shape117-278" transform="translate(928.143,-577.226)">
			<title>Relationship.117</title>
			<desc>Read/Verify [HTTPS]</desc>
			<path d="M0 759.69 L-78.92 849.01" class="st10"/>
			<rect x="-61.9849" y="800.074" width="38.6559" height="15.9999" class="st12"/>
			<text x="-61.98" y="806.07" class="st13">Read/Verify <tspan x="-52.22" dy="1.333em" class="st14">[HTTPS]</tspan></text>		</g>
		<g id="group118-286" transform="translate(438.956,-429.168)">
			<title>Web browser.118</title>
			<g id="group119-287">
				<title>Sheet.119</title>
				<g id="shape120-288">
					<title>Container.7</title>
					<rect x="0" y="691.839" width="96.923" height="67.8461" rx="1.41732" ry="1.41732" class="st16"/>
				</g>
				<g id="shape121-290" transform="translate(3.16392,-60.7384)">
					<title>Sheet.121</title>
					<ellipse cx="2.76286" cy="756.922" rx="2.76286" ry="2.76286" class="st17"/>
				</g>
				<g id="shape122-292" transform="translate(1.93846,-1.93846)">
					<title>Container</title>
					<rect x="0" y="702.177" width="93.0461" height="57.5076" rx="1.41732" ry="1.41732" class="st8"/>
				</g>
				<g id="shape123-294" transform="translate(9.98195,-60.7384)">
					<title>Sheet.123</title>
					<ellipse cx="2.76286" cy="756.922" rx="2.76286" ry="2.76286" class="st17"/>
				</g>
				<g id="shape124-296" transform="translate(16.8,-60.7384)">
					<title>Sheet.124</title>
					<ellipse cx="2.76286" cy="756.922" rx="2.76286" ry="2.76286" class="st17"/>
				</g>
				<g id="shape125-298" transform="translate(23.8609,-60.734)">
					<title>Container.14</title>
					<rect x="0" y="754.15" width="70.9944" height="5.53458" rx="2.76729" ry="2.76729" class="st18"/>
				</g>
			</g>
			<g id="shape126-300">
				<title>Sheet.126</title>
				<desc>AI/ML Interface [Container: technology] UI for AIOps</desc>
				<text x="16.55" y="719.49" class="st6">AI/ML Interface <tspan x="19.6" dy="1.167em" class="st3">[Container: technology]  </tspan><tspan x="28.72" dy="2.062em" class="st9">UI for AIOps</tspan></text>			</g>
		</g>
		<g id="shape127-304" transform="translate(446.356,-571.181)">
			<title>Relationship.127</title>
			<desc>Uses [technology]</desc>
			<path d="M0 759.69 L24.69 824.68" class="st10"/>
			<rect x="-1.22707" y="788.746" width="30.7614" height="15.9999" class="st12"/>
			<text x="6.47" y="794.75" class="st13">Uses <tspan x="-1.23" dy="1.333em" class="st14">[technology]</tspan></text>		</g>
		<g id="shape128-312" transform="translate(473.658,-603.756)">
			<title>Relationship.128</title>
			<desc>Uses [technology]</desc>
			<path d="M0 759.69 L274.2 890.52" class="st10"/>
			<rect x="126.181" y="819.153" width="30.7614" height="15.9999" class="st15"/>
			<text x="133.88" y="825.15" class="st13">Uses <tspan x="126.18" dy="1.333em" class="st14">[technology]</tspan></text>		</g>
		<g id="shape129-320" transform="translate(500.115,-429.168)">
			<title>Relationship.129</title>
			<desc>Uses [technology]</desc>
			<path d="M0 759.69 L12.81 793.91" class="st10"/>
			<rect x="-7.19025" y="773.366" width="30.7614" height="15.9999" class="st12"/>
			<text x="0.5" y="779.37" class="st13">Uses <tspan x="-7.19" dy="1.333em" class="st14">[technology]</tspan></text>		</g>
		<g id="shape130-328" transform="translate(565.866,-351.215)">
			<title>Relationship.130</title>
			<desc>CRUD [mtlS]</desc>
			<path d="M0 752.6 L55.46 752.6" class="st10"/>
			<rect x="23.3057" y="744.529" width="18.6641" height="15.9999" class="st12"/>
			<text x="23.31" y="750.53" class="st13">CRUD <tspan x="25.33" dy="1.333em" class="st14">[mtlS]</tspan></text>		</g>
		<g id="shape132-336" transform="translate(70.8661,-103.465)">
			<title>Software System.15</title>
			<desc>OrganizationalIncentives [Software System] Manages Charity an...</desc>
			<rect x="0" y="670.394" width="127.559" height="89.2913" class="st20"/>
			<text x="13.56" y="700.54" class="st6">OrganizationalIncentives <tspan x="41.46" dy="1.167em" class="st3">[Software System] </tspan><tspan x="14.56" dy="2.187em" class="st9">Manages Charity and Business </tspan><tspan x="4.2" dy="1.188em" class="st9">Relations and Donation/Redemption</tspan></text>		</g>
		<g id="shape133-342" transform="translate(70.8661,-231.024)">
			<title>Software System</title>
			<desc>CommunityConnectChange [Software System] System for community...</desc>
			<rect x="0" y="670.394" width="127.559" height="89.2913" class="st20"/>
			<text x="8.16" y="700.54" class="st6">CommunityConnectChange <tspan x="41.46" dy="1.167em" class="st3">[Software System] </tspan><tspan x="6.36" dy="2.187em" class="st9">System for community members to </tspan><tspan x="36.35" dy="1.188em" class="st9">interact for good</tspan></text>		</g>
		<g id="shape134-348" transform="translate(198.425,-247.084)">
			<title>Relationship.134</title>
			<desc>Pushes Telemetry [mTLS]</desc>
			<path d="M0 759.69 L70.99 791.5" class="st10"/>
			<rect x="11.1283" y="769.536" width="57.7414" height="15.9999" class="st15"/>
			<text x="11.13" y="775.54" class="st13">Pushes Telemetry <tspan x="31.66" dy="1.333em" class="st14">[mTLS]</tspan></text>		</g>
		<g id="shape135-356" transform="translate(198.425,-161.997)">
			<title>Relationship.135</title>
			<desc>Pushes Telemetry [mTLS]</desc>
			<path d="M0 759.69 L70.35 744.37" class="st10"/>
			<rect x="11.0847" y="742.914" width="57.7414" height="15.9999" class="st15"/>
			<text x="11.08" y="748.91" class="st13">Pushes Telemetry <tspan x="31.62" dy="1.333em" class="st14">[mTLS]</tspan></text>		</g>
		<g id="shape136-364" transform="translate(935.433,-238.635)">
			<title>Software System.10</title>
			<desc>MediaPositivity [Software System] Manages Social and Other Me...</desc>
			<rect x="0" y="675.354" width="120.472" height="84.3307" class="st20"/>
			<text x="28.81" y="703.02" class="st6">MediaPositivity <tspan x="37.91" dy="1.167em" class="st3">[Software System] </tspan><tspan x="6.5" dy="2.187em" class="st9">Manages Social and Other Media </tspan><tspan x="40.76" dy="1.188em" class="st9">Interactions</tspan></text>		</g>
		<g id="shape137-370" transform="translate(859.3,-272.433)">
			<title>Relationship.16</title>
			<desc>Generates [Event]</desc>
			<path d="M0 753.09 L66.32 752.23" class="st10"/>
			<rect x="21.2571" y="744.529" width="33.6206" height="15.9999" class="st12"/>
			<text x="21.26" y="750.53" class="st13">Generates <tspan x="29.33" dy="1.333em" class="st14">[Event]</tspan></text>		</g>
		<g id="shape138-378" transform="translate(73.1734,-21.8268)">
			<title>Sheet.138</title>
			<desc>[Container] AnalyticsReporting System</desc>
			<rect x="0" y="706.394" width="274.677" height="53.2913" class="st21"/>
			<text x="43.46" y="736.64" class="st22">[Container] AnalyticsReporting System</text>		</g>
	</g>
</svg>
