<?xml version="1.0" encoding="UTF-8" standalone="no"?>
<!DOCTYPE svg PUBLIC "-//W3C//DTD SVG 1.1//EN" "http://www.w3.org/Graphics/SVG/1.1/DTD/svg11.dtd">
<!-- Generated by Microsoft Visio, SVG Export svg_1.svg Analytics and Reporting -->
<svg xmlns="http://www.w3.org/2000/svg" xmlns:xlink="http://www.w3.org/1999/xlink" xmlns:ev="http://www.w3.org/2001/xml-events" width="9.13386in" height="8.24803in" viewBox="0 0 657.638 593.858" xml:space="preserve" color-interpolation-filters="sRGB" class="st15">
	<style type="text/css">
	<![CDATA[
		.st1 {fill:#176361;stroke:#145553;stroke-linecap:round;stroke-linejoin:round;stroke-width:1}
		.st2 {fill:#ffffff;font-family:Calibri;font-size:0.833336em}
		.st3 {font-size:0.599989em}
		.st4 {font-size:0.799995em}
		.st5 {fill:#114745;stroke:#0d3937;stroke-linecap:round;stroke-linejoin:round;stroke-width:1}
		.st6 {font-size:1em}
		.st7 {marker-end:url(#mrkr13-42);stroke:#444444;stroke-dasharray:5.25,3.75;stroke-linecap:round;stroke-linejoin:round;stroke-width:0.75}
		.st8 {fill:#444444;fill-opacity:1;stroke:#444444;stroke-opacity:1;stroke-width:0.22935779816514}
		.st9 {fill:#ffffff;stroke:none;stroke-linecap:butt;stroke-width:7.2}
		.st10 {fill:#000000;font-family:Calibri;font-size:0.666664em}
		.st11 {font-size:0.749991em}
		.st12 {fill:#ffffff;stroke:none;stroke-linecap:butt}
		.st13 {fill:none;stroke:none;stroke-linecap:round;stroke-linejoin:round;stroke-width:0.75}
		.st14 {fill:#000000;font-family:Calibri;font-size:1.00001em}
		.st15 {fill:none;fill-rule:evenodd;font-size:12px;overflow:visible;stroke-linecap:square;stroke-miterlimit:3}
	]]>
	</style>

	<defs id="Markers">
		<g id="lend13">
			<path d="M 3 1 L 0 0 L 3 -1 L 3 1 " style="stroke:none"/>
		</g>
		<marker id="mrkr13-42" class="st8" refX="-13.08" orient="auto" markerUnits="strokeWidth" overflow="visible">
			<use xlink:href="#lend13" transform="scale(-4.36,-4.36) "/>
		</marker>
	</defs>
	<g>
		<title>Context - Analytics and Reporting</title>
		<g id="shape1-1" transform="translate(262.913,-265.559)">
			<title>Software System.12</title>
			<desc>AnalyticsReporting [Software System] Interaction and Operatio...</desc>
			<rect x="0" y="497.622" width="137.48" height="96.2362" class="st1"/>
			<text x="30.51" y="531.24" class="st2">AnalyticsReporting <tspan x="46.42" dy="1.167em" class="st3">[Software System] </tspan><tspan x="15.37" dy="2.187em" class="st4">Interaction and Operational data </tspan><tspan x="14.61" dy="1.188em" class="st4">management/analytics/reporting</tspan></text>		</g>
		<g id="shape2-7" transform="translate(94.252,-419.528)">
			<title>Person</title>
			<desc>HeyBlue! Staff [Person] Admins, Media Relations and Management</desc>
			<path d="M37.41 519.45 L19.84 519.45 A19.8425 19.8425 -180 0 0 -0 539.29 L0 574.02 A19.8425 19.8425 -180 0 0 19.84 593.86&#xA;						 L86.46 593.86 A19.8425 19.8425 -180 0 0 106.3 574.02 L106.3 539.29 A19.8425 19.8425 -180 0 0 86.46 519.45&#xA;						 L68.89 519.45 A26.3622 26.5039 -180 1 0 37.41 519.45 Z" class="st5"/>
			<text x="24.12" y="540.11" class="st2">HeyBlue! Staff <tspan x="42.89" dy="1.667em" class="st3">[Person]  </tspan><tspan x="4.85" dy="2.312em" class="st4">Admins,  Media Relations and </tspan><tspan x="31.3" dy="1.188em" class="st4">Management</tspan></text>		</g>
		<g id="shape3-13" transform="translate(484.775,-419.528)">
			<title>Person.3</title>
			<desc>HeyBlue! Technical Staff [Person] Data Staff, SRE</desc>
			<path d="M37.41 519.45 L19.84 519.45 A19.8425 19.8425 -180 0 0 -0 539.29 L0 574.02 A19.8425 19.8425 -180 0 0 19.84 593.86&#xA;						 L86.46 593.86 A19.8425 19.8425 -180 0 0 106.3 574.02 L106.3 539.29 A19.8425 19.8425 -180 0 0 86.46 519.45&#xA;						 L68.89 519.45 A26.3622 26.5039 -180 1 0 37.41 519.45 Z" class="st5"/>
			<text x="14.45" y="539.11" class="st2">HeyBlue! Technical <tspan x="43.73" dy="1em" class="st6">Staff </tspan><tspan x="42.89" dy="1.667em" class="st3">[Person]  </tspan><tspan x="29.21" dy="2.5em" class="st4">Data Staff, SRE</tspan></text>		</g>
		<g id="shape7-19" transform="translate(62.0421,-93.5433)">
			<title>Software System</title>
			<desc>CommunityConnectChange [Software System] System for community...</desc>
			<rect x="0" y="504.567" width="127.559" height="89.2913" class="st1"/>
			<text x="8.16" y="534.71" class="st2">CommunityConnectChange <tspan x="41.46" dy="1.167em" class="st3">[Software System] </tspan><tspan x="6.36" dy="2.187em" class="st4">System for community members to </tspan><tspan x="36.35" dy="1.188em" class="st4">interact for good</tspan></text>		</g>
		<g id="shape8-25" transform="translate(265.799,-93.5433)">
			<title>Software System.10</title>
			<desc>MediaPositivity [Software System] Manages Social and Other Me...</desc>
			<rect x="0" y="502.11" width="131.069" height="91.7482" class="st1"/>
			<text x="34.11" y="533.48" class="st2">MediaPositivity <tspan x="43.21" dy="1.167em" class="st3">[Software System] </tspan><tspan x="11.8" dy="2.187em" class="st4">Manages Social and Other Media </tspan><tspan x="46.06" dy="1.188em" class="st4">Interactions</tspan></text>		</g>
		<g id="shape9-31" transform="translate(472.391,-93.5433)">
			<title>Software System.15</title>
			<desc>OrganizationalIncentives [Software System] Manages Charity an...</desc>
			<rect x="0" y="502.11" width="131.069" height="91.7482" class="st1"/>
			<text x="15.32" y="533.48" class="st2">OrganizationalIncentives <tspan x="43.21" dy="1.167em" class="st3">[Software System] </tspan><tspan x="16.32" dy="2.187em" class="st4">Manages Charity and Business </tspan><tspan x="5.96" dy="1.188em" class="st4">Relations and Donation/Redemption</tspan></text>		</g>
		<g id="shape11-37" transform="translate(178.187,-182.835)">
			<title>Relationship.11</title>
			<desc>Pushes Telemetry [mTLS]</desc>
			<path d="M0 593.86 L89.56 517.5" class="st7"/>
			<rect x="19.6001" y="544.441" width="57.7414" height="15.9999" class="st9"/>
			<text x="19.6" y="550.44" class="st10">Pushes Telemetry <tspan x="40.13" dy="1.333em" class="st11">[mTLS]</tspan></text>		</g>
		<g id="shape12-46" transform="translate(483.624,-185.291)">
			<title>Relationship.12</title>
			<desc>Pushes Telemetry [mTLS]</desc>
			<path d="M0 593.86 L-87.52 519.92" class="st7"/>
			<rect x="-76.4243" y="545.777" width="57.7414" height="15.9999" class="st12"/>
			<text x="-76.42" y="551.78" class="st10">Pushes Telemetry <tspan x="-55.89" dy="1.333em" class="st11">[mTLS]</tspan></text>		</g>
		<g id="shape13-54" transform="translate(338.578,-265.559)">
			<title>Relationship.16</title>
			<desc>Generates [Event]</desc>
			<path d="M-7.01 593.86 L-7.14 664.32" class="st7"/>
			<rect x="-23.8267" y="625.994" width="33.6206" height="15.9999" class="st9"/>
			<text x="-23.83" y="631.99" class="st10">Generates <tspan x="-15.75" dy="1.333em" class="st11">[Event]</tspan></text>		</g>
		<g id="shape14-62" transform="translate(199.605,-433.316)">
			<title>Relationship</title>
			<desc>Generates/Reads [HTTPS]</desc>
			<path d="M0 593.86 L71.67 658.79" class="st7"/>
			<rect x="11.4192" y="621.569" width="56.1986" height="15.9999" class="st12"/>
			<text x="11.42" y="627.57" class="st10">Generates/Reads <tspan x="29.96" dy="1.333em" class="st11">[HTTPS]</tspan></text>		</g>
		<g id="shape15-70" transform="translate(484.849,-437.66)">
			<title>Relationship.15</title>
			<desc>Model/Analyze/Monitor/Investigate [HTTPS]</desc>
			<path d="M0 593.86 L-86.11 663.55" class="st7"/>
			<rect x="-105.882" y="623.847" width="118.108" height="15.9999" class="st9"/>
			<text x="-105.88" y="629.85" class="st10">Model/Analyze/Monitor/Investigate <tspan x="-56.39" dy="1.333em" class="st11">[HTTPS]</tspan></text>		</g>
		<g id="shape16-78" transform="translate(10.063,-10.2047)">
			<title>Sheet.16</title>
			<desc>[System Context] AnalyticsReporting System</desc>
			<rect x="0" y="540.567" width="274.677" height="53.2913" class="st13"/>
			<text x="29.38" y="570.81" class="st14">[System Context] AnalyticsReporting System</text>		</g>
	</g>
</svg>
